<?xml version="1.0" encoding="UTF-8" standalone="no"?>
<!DOCTYPE svg PUBLIC "-//W3C//DTD SVG 1.1//EN"
"http://www.w3.org/Graphics/SVG/1.1/DTD/svg11.dtd">
<svg viewBox="0 0 909 1286" version="1.1" xmlns="http://www.w3.org/2000/svg" xmlns:xlink="http://www.w3.org/1999/xlink">
<defs>
<style type="text/css"><![CDATA[
.g0_2{
fill: #000;
}
]]></style>
</defs>
<path fill-rule="evenodd" d="M55,62.5h.7v-.7H55v.7Z" class="g0_2"/>
<path fill-rule="evenodd" d="M55,62.5h.7v-.7H55v.7Z" class="g0_2"/>
<path fill-rule="evenodd" d="M55.7,62.5h81.5v-.7H55.7v.7Z" class="g0_2"/>
<path fill-rule="evenodd" d="M137.2,62.5h.7v-.7h-.7v.7Z" class="g0_2"/>
<path fill-rule="evenodd" d="M137.9,62.5H321.3v-.7H137.9v.7Z" class="g0_2"/>
<path fill-rule="evenodd" d="M321.3,62.5h.7v-.7h-.7v.7Z" class="g0_2"/>
<path fill-rule="evenodd" d="M322,62.5H454.4v-.7H322v.7Z" class="g0_2"/>
<path fill-rule="evenodd" d="M454.4,62.5h.7v-.7h-.7v.7Z" class="g0_2"/>
<path fill-rule="evenodd" d="M455.1,62.5H577.3v-.7H455.1v.7Z" class="g0_2"/>
<path fill-rule="evenodd" d="M577.3,62.5h.7v-.7h-.7v.7Z" class="g0_2"/>
<path fill-rule="evenodd" d="M578,62.5H720.8v-.7H578v.7Z" class="g0_2"/>
<path fill-rule="evenodd" d="M720.8,62.5h.8v-.7h-.8v.7Z" class="g0_2"/>
<path fill-rule="evenodd" d="M721.6,62.5H854v-.7H721.6v.7Z" class="g0_2"/>
<path fill-rule="evenodd" d="M854,62.5h.7v-.7H854v.7Z" class="g0_2"/>
<path fill-rule="evenodd" d="M854,62.5h.7v-.7H854v.7Z" class="g0_2"/>
<path fill-rule="evenodd" d="M55,83.2h.7V62.5H55V83.2Z" class="g0_2"/>
<path fill-rule="evenodd" d="M137.2,83.2h.7V62.5h-.7V83.2Z" class="g0_2"/>
<path fill-rule="evenodd" d="M321.3,83.2h.7V62.5h-.7V83.2Z" class="g0_2"/>
<path fill-rule="evenodd" d="M454.4,83.2h.7V62.5h-.7V83.2Z" class="g0_2"/>
<path fill-rule="evenodd" d="M577.3,83.2h.7V62.5h-.7V83.2Z" class="g0_2"/>
<path fill-rule="evenodd" d="M720.8,83.2h.8V62.5h-.8V83.2Z" class="g0_2"/>
<path fill-rule="evenodd" d="M854,83.2h.7V62.5H854V83.2Z" class="g0_2"/>
<path fill-rule="evenodd" d="M55,84h.7v-.8H55V84Z" class="g0_2"/>
<path fill-rule="evenodd" d="M55.7,84h81.5v-.8H55.7V84Z" class="g0_2"/>
<path fill-rule="evenodd" d="M137.2,84h.7v-.8h-.7V84Z" class="g0_2"/>
<path fill-rule="evenodd" d="M137.9,84H321.3v-.8H137.9V84Z" class="g0_2"/>
<path fill-rule="evenodd" d="M321.3,84h.7v-.8h-.7V84Z" class="g0_2"/>
<path fill-rule="evenodd" d="M322,84H454.4v-.8H322V84Z" class="g0_2"/>
<path fill-rule="evenodd" d="M454.4,84h.7v-.8h-.7V84Z" class="g0_2"/>
<path fill-rule="evenodd" d="M455.1,84H577.3v-.8H455.1V84Z" class="g0_2"/>
<path fill-rule="evenodd" d="M577.3,84h.7v-.8h-.7V84Z" class="g0_2"/>
<path fill-rule="evenodd" d="M578,84h30.1v-.8H578V84Z" class="g0_2"/>
<path fill-rule="evenodd" d="M608.1,84h.7v-.8h-.7V84Z" class="g0_2"/>
<path fill-rule="evenodd" d="M608.8,84h112v-.8h-112V84Z" class="g0_2"/>
<path fill-rule="evenodd" d="M720.8,84h.8v-.8h-.8V84Z" class="g0_2"/>
<path fill-rule="evenodd" d="M721.6,84H854v-.8H721.6V84Z" class="g0_2"/>
<path fill-rule="evenodd" d="M854,84h.7v-.8H854V84Z" class="g0_2"/>
<path fill-rule="evenodd" d="M55,104.5h.7V84H55v20.5Z" class="g0_2"/>
<path fill-rule="evenodd" d="M137.2,104.5h.7V84h-.7v20.5Z" class="g0_2"/>
<path fill-rule="evenodd" d="M608.1,104.5h.7V84h-.7v20.5Z" class="g0_2"/>
<path fill-rule="evenodd" d="M854,104.5h.7V84H854v20.5Z" class="g0_2"/>
<path fill-rule="evenodd" d="M55,105.2h.7v-.7H55v.7Z" class="g0_2"/>
<path fill-rule="evenodd" d="M55.7,105.2h81.5v-.7H55.7v.7Z" class="g0_2"/>
<path fill-rule="evenodd" d="M137.2,105.2h.7v-.7h-.7v.7Z" class="g0_2"/>
<path fill-rule="evenodd" d="M137.9,105.2H608.1v-.7H137.9v.7Z" class="g0_2"/>
<path fill-rule="evenodd" d="M608.1,105.2h.7v-.7h-.7v.7Z" class="g0_2"/>
<path fill-rule="evenodd" d="M608.8,105.2H854v-.7H608.8v.7Z" class="g0_2"/>
<path fill-rule="evenodd" d="M854,105.2h.7v-.7H854v.7Z" class="g0_2"/>
<path fill-rule="evenodd" d="M55,126h.7V105.2H55V126Z" class="g0_2"/>
<path fill-rule="evenodd" d="M137.2,126h.7V105.2h-.7V126Z" class="g0_2"/>
<path fill-rule="evenodd" d="M608.1,126h.7V105.2h-.7V126Z" class="g0_2"/>
<path fill-rule="evenodd" d="M854,126h.7V105.2H854V126Z" class="g0_2"/>
<path fill-rule="evenodd" d="M55,126.7h.7V126H55v.7Z" class="g0_2"/>
<path fill-rule="evenodd" d="M55.7,126.7h81.5V126H55.7v.7Z" class="g0_2"/>
<path fill-rule="evenodd" d="M137.2,126.7h.7V126h-.7v.7Z" class="g0_2"/>
<path fill-rule="evenodd" d="M137.9,126.7H608.1V126H137.9v.7Z" class="g0_2"/>
<path fill-rule="evenodd" d="M608.1,126.7h.7V126h-.7v.7Z" class="g0_2"/>
<path fill-rule="evenodd" d="M608.8,126.7H854V126H608.8v.7Z" class="g0_2"/>
<path fill-rule="evenodd" d="M854,126.7h.7V126H854v.7Z" class="g0_2"/>
<path fill-rule="evenodd" d="M55,147.2h.7V126.7H55v20.5Z" class="g0_2"/>
<path fill-rule="evenodd" d="M137.2,147.2h.7V126.7h-.7v20.5Z" class="g0_2"/>
<path fill-rule="evenodd" d="M608.1,147.2h.7V126.7h-.7v20.5Z" class="g0_2"/>
<path fill-rule="evenodd" d="M854,147.2h.7V126.7H854v20.5Z" class="g0_2"/>
<path fill-rule="evenodd" d="M55,148h.7v-.8H55v.8Z" class="g0_2"/>
<path fill-rule="evenodd" d="M55.7,148h81.5v-.8H55.7v.8Z" class="g0_2"/>
<path fill-rule="evenodd" d="M137.2,148h.7v-.8h-.7v.8Z" class="g0_2"/>
<path fill-rule="evenodd" d="M137.9,148H608.1v-.8H137.9v.8Z" class="g0_2"/>
<path fill-rule="evenodd" d="M608.1,148h.7v-.8h-.7v.8Z" class="g0_2"/>
<path fill-rule="evenodd" d="M608.8,148H854v-.8H608.8v.8Z" class="g0_2"/>
<path fill-rule="evenodd" d="M854,148h.7v-.8H854v.8Z" class="g0_2"/>
<path fill-rule="evenodd" d="M55,168.7h.7V148H55v20.7Z" class="g0_2"/>
<path fill-rule="evenodd" d="M137.2,168.7h.7V148h-.7v20.7Z" class="g0_2"/>
<path fill-rule="evenodd" d="M608.1,168.7h.7V148h-.7v20.7Z" class="g0_2"/>
<path fill-rule="evenodd" d="M854,168.7h.7V148H854v20.7Z" class="g0_2"/>
<path fill-rule="evenodd" d="M55,169.4h.7v-.7H55v.7Z" class="g0_2"/>
<path fill-rule="evenodd" d="M55.7,169.4h81.5v-.7H55.7v.7Z" class="g0_2"/>
<path fill-rule="evenodd" d="M137.2,169.4h.7v-.7h-.7v.7Z" class="g0_2"/>
<path fill-rule="evenodd" d="M137.9,169.4H608.1v-.7H137.9v.7Z" class="g0_2"/>
<path fill-rule="evenodd" d="M608.1,169.4h.7v-.7h-.7v.7Z" class="g0_2"/>
<path fill-rule="evenodd" d="M608.8,169.4H854v-.7H608.8v.7Z" class="g0_2"/>
<path fill-rule="evenodd" d="M854,169.4h.7v-.7H854v.7Z" class="g0_2"/>
<path fill-rule="evenodd" d="M55,190h.7V169.4H55V190Z" class="g0_2"/>
<path fill-rule="evenodd" d="M137.2,190h.7V169.4h-.7V190Z" class="g0_2"/>
<path fill-rule="evenodd" d="M608.1,190h.7V169.4h-.7V190Z" class="g0_2"/>
<path fill-rule="evenodd" d="M854,190h.7V169.4H854V190Z" class="g0_2"/>
<path fill-rule="evenodd" d="M55,190.7h.7V190H55v.7Z" class="g0_2"/>
<path fill-rule="evenodd" d="M55.7,190.7h81.5V190H55.7v.7Z" class="g0_2"/>
<path fill-rule="evenodd" d="M137.2,190.7h.7V190h-.7v.7Z" class="g0_2"/>
<path fill-rule="evenodd" d="M137.9,190.7H608.1V190H137.9v.7Z" class="g0_2"/>
<path fill-rule="evenodd" d="M608.1,190.7h.7V190h-.7v.7Z" class="g0_2"/>
<path fill-rule="evenodd" d="M608.8,190.7H854V190H608.8v.7Z" class="g0_2"/>
<path fill-rule="evenodd" d="M854,190.7h.7V190H854v.7Z" class="g0_2"/>
<path fill-rule="evenodd" d="M55,211.4h.7V190.7H55v20.7Z" class="g0_2"/>
<path fill-rule="evenodd" d="M137.2,211.4h.7V190.7h-.7v20.7Z" class="g0_2"/>
<path fill-rule="evenodd" d="M608.1,211.4h.7V190.7h-.7v20.7Z" class="g0_2"/>
<path fill-rule="evenodd" d="M854,211.4h.7V190.7H854v20.7Z" class="g0_2"/>
<path fill-rule="evenodd" d="M55,212.1h.7v-.7H55v.7Z" class="g0_2"/>
<path fill-rule="evenodd" d="M55.7,212.1h81.5v-.7H55.7v.7Z" class="g0_2"/>
<path fill-rule="evenodd" d="M137.2,212.1h.7v-.7h-.7v.7Z" class="g0_2"/>
<path fill-rule="evenodd" d="M137.9,212.1H608.1v-.7H137.9v.7Z" class="g0_2"/>
<path fill-rule="evenodd" d="M608.1,212.1h.7v-.7h-.7v.7Z" class="g0_2"/>
<path fill-rule="evenodd" d="M608.8,212.1H854v-.7H608.8v.7Z" class="g0_2"/>
<path fill-rule="evenodd" d="M854,212.1h.7v-.7H854v.7Z" class="g0_2"/>
<path fill-rule="evenodd" d="M55,232.7h.7V212.1H55v20.6Z" class="g0_2"/>
<path fill-rule="evenodd" d="M137.2,232.7h.7V212.1h-.7v20.6Z" class="g0_2"/>
<path fill-rule="evenodd" d="M608.1,232.7h.7V212.1h-.7v20.6Z" class="g0_2"/>
<path fill-rule="evenodd" d="M854,232.7h.7V212.1H854v20.6Z" class="g0_2"/>
<path fill-rule="evenodd" d="M55,233.4h.7v-.7H55v.7Z" class="g0_2"/>
<path fill-rule="evenodd" d="M55.7,233.4h81.5v-.7H55.7v.7Z" class="g0_2"/>
<path fill-rule="evenodd" d="M137.2,233.4h.7v-.7h-.7v.7Z" class="g0_2"/>
<path fill-rule="evenodd" d="M137.9,233.4H608.1v-.7H137.9v.7Z" class="g0_2"/>
<path fill-rule="evenodd" d="M608.1,233.4h.7v-.7h-.7v.7Z" class="g0_2"/>
<path fill-rule="evenodd" d="M608.8,233.4H854v-.7H608.8v.7Z" class="g0_2"/>
<path fill-rule="evenodd" d="M854,233.4h.7v-.7H854v.7Z" class="g0_2"/>
<path fill-rule="evenodd" d="M55,254.1h.7V233.4H55v20.7Z" class="g0_2"/>
<path fill-rule="evenodd" d="M137.2,254.1h.7V233.4h-.7v20.7Z" class="g0_2"/>
<path fill-rule="evenodd" d="M608.1,254.1h.7V233.4h-.7v20.7Z" class="g0_2"/>
<path fill-rule="evenodd" d="M854,254.1h.7V233.4H854v20.7Z" class="g0_2"/>
<path fill-rule="evenodd" d="M55,254.9h.7v-.8H55v.8Z" class="g0_2"/>
<path fill-rule="evenodd" d="M55.7,254.9h81.5v-.8H55.7v.8Z" class="g0_2"/>
<path fill-rule="evenodd" d="M137.2,254.9h.7v-.8h-.7v.8Z" class="g0_2"/>
<path fill-rule="evenodd" d="M137.9,254.9H608.1v-.8H137.9v.8Z" class="g0_2"/>
<path fill-rule="evenodd" d="M608.1,254.9h.7v-.8h-.7v.8Z" class="g0_2"/>
<path fill-rule="evenodd" d="M608.8,254.9H854v-.8H608.8v.8Z" class="g0_2"/>
<path fill-rule="evenodd" d="M854,254.9h.7v-.8H854v.8Z" class="g0_2"/>
<path fill-rule="evenodd" d="M55,275.4h.7V254.9H55v20.5Z" class="g0_2"/>
<path fill-rule="evenodd" d="M137.2,275.4h.7V254.9h-.7v20.5Z" class="g0_2"/>
<path fill-rule="evenodd" d="M608.1,275.4h.7V254.9h-.7v20.5Z" class="g0_2"/>
<path fill-rule="evenodd" d="M854,275.4h.7V254.9H854v20.5Z" class="g0_2"/>
<path fill-rule="evenodd" d="M55,276.1h.7v-.7H55v.7Z" class="g0_2"/>
<path fill-rule="evenodd" d="M55.7,276.1h81.5v-.7H55.7v.7Z" class="g0_2"/>
<path fill-rule="evenodd" d="M137.2,276.1h.7v-.7h-.7v.7Z" class="g0_2"/>
<path fill-rule="evenodd" d="M137.9,276.1H608.1v-.7H137.9v.7Z" class="g0_2"/>
<path fill-rule="evenodd" d="M608.1,276.1h.7v-.7h-.7v.7Z" class="g0_2"/>
<path fill-rule="evenodd" d="M608.8,276.1H854v-.7H608.8v.7Z" class="g0_2"/>
<path fill-rule="evenodd" d="M854,276.1h.7v-.7H854v.7Z" class="g0_2"/>
<path fill-rule="evenodd" d="M55,296.8h.7V276.1H55v20.7Z" class="g0_2"/>
<path fill-rule="evenodd" d="M137.2,296.8h.7V276.1h-.7v20.7Z" class="g0_2"/>
<path fill-rule="evenodd" d="M608.1,296.8h.7V276.1h-.7v20.7Z" class="g0_2"/>
<path fill-rule="evenodd" d="M854,296.8h.7V276.1H854v20.7Z" class="g0_2"/>
<path fill-rule="evenodd" d="M55,297.6h.7v-.8H55v.8Z" class="g0_2"/>
<path fill-rule="evenodd" d="M55.7,297.6h81.5v-.8H55.7v.8Z" class="g0_2"/>
<path fill-rule="evenodd" d="M137.2,297.6h.7v-.8h-.7v.8Z" class="g0_2"/>
<path fill-rule="evenodd" d="M137.9,297.6H608.1v-.8H137.9v.8Z" class="g0_2"/>
<path fill-rule="evenodd" d="M608.1,297.6h.7v-.8h-.7v.8Z" class="g0_2"/>
<path fill-rule="evenodd" d="M608.8,297.6H854v-.8H608.8v.8Z" class="g0_2"/>
<path fill-rule="evenodd" d="M854,297.6h.7v-.8H854v.8Z" class="g0_2"/>
<path fill-rule="evenodd" d="M55,338.8h.7V297.6H55v41.2Z" class="g0_2"/>
<path fill-rule="evenodd" d="M854,338.8h.7V297.6H854v41.2Z" class="g0_2"/>
<path fill-rule="evenodd" d="M55,339.6h.7v-.8H55v.8Z" class="g0_2"/>
<path fill-rule="evenodd" d="M55.7,339.6h81.5v-.8H55.7v.8Z" class="g0_2"/>
<path fill-rule="evenodd" d="M137.2,339.6h.7v-.8h-.7v.8Z" class="g0_2"/>
<path fill-rule="evenodd" d="M137.9,339.6H321.3v-.8H137.9v.8Z" class="g0_2"/>
<path fill-rule="evenodd" d="M321.3,339.6h.7v-.8h-.7v.8Z" class="g0_2"/>
<path fill-rule="evenodd" d="M322,339.6H454.4v-.8H322v.8Z" class="g0_2"/>
<path fill-rule="evenodd" d="M454.4,339.6h.7v-.8h-.7v.8Z" class="g0_2"/>
<path fill-rule="evenodd" d="M455.1,339.6H577.3v-.8H455.1v.8Z" class="g0_2"/>
<path fill-rule="evenodd" d="M577.3,339.6h.7v-.8h-.7v.8Z" class="g0_2"/>
<path fill-rule="evenodd" d="M578,339.6H720.8v-.8H578v.8Z" class="g0_2"/>
<path fill-rule="evenodd" d="M720.8,339.6h.8v-.8h-.8v.8Z" class="g0_2"/>
<path fill-rule="evenodd" d="M721.6,339.6H854v-.8H721.6v.8Z" class="g0_2"/>
<path fill-rule="evenodd" d="M854,339.6h.7v-.8H854v.8Z" class="g0_2"/>
<path fill-rule="evenodd" d="M55,360.1h.7V339.6H55v20.5Z" class="g0_2"/>
<path fill-rule="evenodd" d="M137.2,360.1h.7V339.6h-.7v20.5Z" class="g0_2"/>
<path fill-rule="evenodd" d="M321.3,360.1h.7V339.6h-.7v20.5Z" class="g0_2"/>
<path fill-rule="evenodd" d="M454.4,360.1h.7V339.6h-.7v20.5Z" class="g0_2"/>
<path fill-rule="evenodd" d="M577.3,360.1h.7V339.6h-.7v20.5Z" class="g0_2"/>
<path fill-rule="evenodd" d="M720.8,360.1h.8V339.6h-.8v20.5Z" class="g0_2"/>
<path fill-rule="evenodd" d="M854,360.1h.7V339.6H854v20.5Z" class="g0_2"/>
<path fill-rule="evenodd" d="M55,360.8h.7v-.7H55v.7Z" class="g0_2"/>
<path fill-rule="evenodd" d="M55.7,360.8h81.5v-.7H55.7v.7Z" class="g0_2"/>
<path fill-rule="evenodd" d="M137.2,360.8h.7v-.7h-.7v.7Z" class="g0_2"/>
<path fill-rule="evenodd" d="M137.9,360.8H321.3v-.7H137.9v.7Z" class="g0_2"/>
<path fill-rule="evenodd" d="M321.3,360.8h.7v-.7h-.7v.7Z" class="g0_2"/>
<path fill-rule="evenodd" d="M322,360.8H454.4v-.7H322v.7Z" class="g0_2"/>
<path fill-rule="evenodd" d="M454.4,360.8h.7v-.7h-.7v.7Z" class="g0_2"/>
<path fill-rule="evenodd" d="M455.1,360.8H577.3v-.7H455.1v.7Z" class="g0_2"/>
<path fill-rule="evenodd" d="M577.3,360.8h.7v-.7h-.7v.7Z" class="g0_2"/>
<path fill-rule="evenodd" d="M578,360.8h30.1v-.7H578v.7Z" class="g0_2"/>
<path fill-rule="evenodd" d="M608.1,360.8h.7v-.7h-.7v.7Z" class="g0_2"/>
<path fill-rule="evenodd" d="M608.8,360.8h112v-.7h-112v.7Z" class="g0_2"/>
<path fill-rule="evenodd" d="M720.8,360.8h.8v-.7h-.8v.7Z" class="g0_2"/>
<path fill-rule="evenodd" d="M721.6,360.8H854v-.7H721.6v.7Z" class="g0_2"/>
<path fill-rule="evenodd" d="M854,360.8h.7v-.7H854v.7Z" class="g0_2"/>
<path fill-rule="evenodd" d="M55,381.6h.7V360.8H55v20.8Z" class="g0_2"/>
<path fill-rule="evenodd" d="M137.2,381.6h.7V360.8h-.7v20.8Z" class="g0_2"/>
<path fill-rule="evenodd" d="M608.1,381.6h.7V360.8h-.7v20.8Z" class="g0_2"/>
<path fill-rule="evenodd" d="M854,381.6h.7V360.8H854v20.8Z" class="g0_2"/>
<path fill-rule="evenodd" d="M55,382.3h.7v-.7H55v.7Z" class="g0_2"/>
<path fill-rule="evenodd" d="M55.7,382.3h81.5v-.7H55.7v.7Z" class="g0_2"/>
<path fill-rule="evenodd" d="M137.2,382.3h.7v-.7h-.7v.7Z" class="g0_2"/>
<path fill-rule="evenodd" d="M137.9,382.3H608.1v-.7H137.9v.7Z" class="g0_2"/>
<path fill-rule="evenodd" d="M608.1,382.3h.7v-.7h-.7v.7Z" class="g0_2"/>
<path fill-rule="evenodd" d="M608.8,382.3H854v-.7H608.8v.7Z" class="g0_2"/>
<path fill-rule="evenodd" d="M854,382.3h.7v-.7H854v.7Z" class="g0_2"/>
<path fill-rule="evenodd" d="M55,402.9h.7V382.3H55v20.6Z" class="g0_2"/>
<path fill-rule="evenodd" d="M137.2,402.9h.7V382.3h-.7v20.6Z" class="g0_2"/>
<path fill-rule="evenodd" d="M608.1,402.9h.7V382.3h-.7v20.6Z" class="g0_2"/>
<path fill-rule="evenodd" d="M854,402.9h.7V382.3H854v20.6Z" class="g0_2"/>
<path fill-rule="evenodd" d="M55,403.6h.7v-.7H55v.7Z" class="g0_2"/>
<path fill-rule="evenodd" d="M55.7,403.6h81.5v-.7H55.7v.7Z" class="g0_2"/>
<path fill-rule="evenodd" d="M137.2,403.6h.7v-.7h-.7v.7Z" class="g0_2"/>
<path fill-rule="evenodd" d="M137.9,403.6H608.1v-.7H137.9v.7Z" class="g0_2"/>
<path fill-rule="evenodd" d="M608.1,403.6h.7v-.7h-.7v.7Z" class="g0_2"/>
<path fill-rule="evenodd" d="M608.8,403.6H854v-.7H608.8v.7Z" class="g0_2"/>
<path fill-rule="evenodd" d="M854,403.6h.7v-.7H854v.7Z" class="g0_2"/>
<path fill-rule="evenodd" d="M55,424.3h.7V403.6H55v20.7Z" class="g0_2"/>
<path fill-rule="evenodd" d="M137.2,424.3h.7V403.6h-.7v20.7Z" class="g0_2"/>
<path fill-rule="evenodd" d="M608.1,424.3h.7V403.6h-.7v20.7Z" class="g0_2"/>
<path fill-rule="evenodd" d="M854,424.3h.7V403.6H854v20.7Z" class="g0_2"/>
<path fill-rule="evenodd" d="M55,425h.7v-.7H55v.7Z" class="g0_2"/>
<path fill-rule="evenodd" d="M55.7,425h81.5v-.7H55.7v.7Z" class="g0_2"/>
<path fill-rule="evenodd" d="M137.2,425h.7v-.7h-.7v.7Z" class="g0_2"/>
<path fill-rule="evenodd" d="M137.9,425H608.1v-.7H137.9v.7Z" class="g0_2"/>
<path fill-rule="evenodd" d="M608.1,425h.7v-.7h-.7v.7Z" class="g0_2"/>
<path fill-rule="evenodd" d="M608.8,425H854v-.7H608.8v.7Z" class="g0_2"/>
<path fill-rule="evenodd" d="M854,425h.7v-.7H854v.7Z" class="g0_2"/>
<path fill-rule="evenodd" d="M55,445.6h.7V425H55v20.6Z" class="g0_2"/>
<path fill-rule="evenodd" d="M137.2,445.6h.7V425h-.7v20.6Z" class="g0_2"/>
<path fill-rule="evenodd" d="M608.1,445.6h.7V425h-.7v20.6Z" class="g0_2"/>
<path fill-rule="evenodd" d="M854,445.6h.7V425H854v20.6Z" class="g0_2"/>
<path fill-rule="evenodd" d="M55,446.3h.7v-.7H55v.7Z" class="g0_2"/>
<path fill-rule="evenodd" d="M55.7,446.3h81.5v-.7H55.7v.7Z" class="g0_2"/>
<path fill-rule="evenodd" d="M137.2,446.3h.7v-.7h-.7v.7Z" class="g0_2"/>
<path fill-rule="evenodd" d="M137.9,446.3H608.1v-.7H137.9v.7Z" class="g0_2"/>
<path fill-rule="evenodd" d="M608.1,446.3h.7v-.7h-.7v.7Z" class="g0_2"/>
<path fill-rule="evenodd" d="M608.8,446.3H854v-.7H608.8v.7Z" class="g0_2"/>
<path fill-rule="evenodd" d="M854,446.3h.7v-.7H854v.7Z" class="g0_2"/>
<path fill-rule="evenodd" d="M55,467h.7V446.3H55V467Z" class="g0_2"/>
<path fill-rule="evenodd" d="M137.2,467h.7V446.3h-.7V467Z" class="g0_2"/>
<path fill-rule="evenodd" d="M608.1,467h.7V446.3h-.7V467Z" class="g0_2"/>
<path fill-rule="evenodd" d="M854,467h.7V446.3H854V467Z" class="g0_2"/>
<path fill-rule="evenodd" d="M55,467.8h.7V467H55v.8Z" class="g0_2"/>
<path fill-rule="evenodd" d="M55.7,467.8h81.5V467H55.7v.8Z" class="g0_2"/>
<path fill-rule="evenodd" d="M137.2,467.8h.7V467h-.7v.8Z" class="g0_2"/>
<path fill-rule="evenodd" d="M137.9,467.8H608.1V467H137.9v.8Z" class="g0_2"/>
<path fill-rule="evenodd" d="M608.1,467.8h.7V467h-.7v.8Z" class="g0_2"/>
<path fill-rule="evenodd" d="M608.8,467.8H854V467H608.8v.8Z" class="g0_2"/>
<path fill-rule="evenodd" d="M854,467.8h.7V467H854v.8Z" class="g0_2"/>
<path fill-rule="evenodd" d="M55,488.3h.7V467.8H55v20.5Z" class="g0_2"/>
<path fill-rule="evenodd" d="M137.2,488.3h.7V467.8h-.7v20.5Z" class="g0_2"/>
<path fill-rule="evenodd" d="M608.1,488.3h.7V467.8h-.7v20.5Z" class="g0_2"/>
<path fill-rule="evenodd" d="M854,488.3h.7V467.8H854v20.5Z" class="g0_2"/>
<path fill-rule="evenodd" d="M55,489h.7v-.7H55v.7Z" class="g0_2"/>
<path fill-rule="evenodd" d="M55.7,489h81.5v-.7H55.7v.7Z" class="g0_2"/>
<path fill-rule="evenodd" d="M137.2,489h.7v-.7h-.7v.7Z" class="g0_2"/>
<path fill-rule="evenodd" d="M137.9,489H608.1v-.7H137.9v.7Z" class="g0_2"/>
<path fill-rule="evenodd" d="M608.1,489h.7v-.7h-.7v.7Z" class="g0_2"/>
<path fill-rule="evenodd" d="M608.8,489H854v-.7H608.8v.7Z" class="g0_2"/>
<path fill-rule="evenodd" d="M854,489h.7v-.7H854v.7Z" class="g0_2"/>
<path fill-rule="evenodd" d="M55,509.7h.7V489H55v20.7Z" class="g0_2"/>
<path fill-rule="evenodd" d="M137.2,509.7h.7V489h-.7v20.7Z" class="g0_2"/>
<path fill-rule="evenodd" d="M608.1,509.7h.7V489h-.7v20.7Z" class="g0_2"/>
<path fill-rule="evenodd" d="M854,509.7h.7V489H854v20.7Z" class="g0_2"/>
<path fill-rule="evenodd" d="M55,510.5h.7v-.8H55v.8Z" class="g0_2"/>
<path fill-rule="evenodd" d="M55.7,510.5h81.5v-.8H55.7v.8Z" class="g0_2"/>
<path fill-rule="evenodd" d="M137.2,510.5h.7v-.8h-.7v.8Z" class="g0_2"/>
<path fill-rule="evenodd" d="M137.9,510.5H608.1v-.8H137.9v.8Z" class="g0_2"/>
<path fill-rule="evenodd" d="M608.1,510.5h.7v-.8h-.7v.8Z" class="g0_2"/>
<path fill-rule="evenodd" d="M608.8,510.5H854v-.8H608.8v.8Z" class="g0_2"/>
<path fill-rule="evenodd" d="M854,510.5h.7v-.8H854v.8Z" class="g0_2"/>
<path fill-rule="evenodd" d="M55,531h.7V510.5H55V531Z" class="g0_2"/>
<path fill-rule="evenodd" d="M137.2,531h.7V510.5h-.7V531Z" class="g0_2"/>
<path fill-rule="evenodd" d="M608.1,531h.7V510.5h-.7V531Z" class="g0_2"/>
<path fill-rule="evenodd" d="M854,531h.7V510.5H854V531Z" class="g0_2"/>
<path fill-rule="evenodd" d="M55,531.7h.7V531H55v.7Z" class="g0_2"/>
<path fill-rule="evenodd" d="M55.7,531.7h81.5V531H55.7v.7Z" class="g0_2"/>
<path fill-rule="evenodd" d="M137.2,531.7h.7V531h-.7v.7Z" class="g0_2"/>
<path fill-rule="evenodd" d="M137.9,531.7H608.1V531H137.9v.7Z" class="g0_2"/>
<path fill-rule="evenodd" d="M608.1,531.7h.7V531h-.7v.7Z" class="g0_2"/>
<path fill-rule="evenodd" d="M608.8,531.7H854V531H608.8v.7Z" class="g0_2"/>
<path fill-rule="evenodd" d="M854,531.7h.7V531H854v.7Z" class="g0_2"/>
<path fill-rule="evenodd" d="M55,552.5h.7V531.7H55v20.8Z" class="g0_2"/>
<path fill-rule="evenodd" d="M137.2,552.5h.7V531.7h-.7v20.8Z" class="g0_2"/>
<path fill-rule="evenodd" d="M608.1,552.5h.7V531.7h-.7v20.8Z" class="g0_2"/>
<path fill-rule="evenodd" d="M854,552.5h.7V531.7H854v20.8Z" class="g0_2"/>
<path fill-rule="evenodd" d="M55,553.2h.7v-.7H55v.7Z" class="g0_2"/>
<path fill-rule="evenodd" d="M55.7,553.2h81.5v-.7H55.7v.7Z" class="g0_2"/>
<path fill-rule="evenodd" d="M137.2,553.2h.7v-.7h-.7v.7Z" class="g0_2"/>
<path fill-rule="evenodd" d="M137.9,553.2H608.1v-.7H137.9v.7Z" class="g0_2"/>
<path fill-rule="evenodd" d="M608.1,553.2h.7v-.7h-.7v.7Z" class="g0_2"/>
<path fill-rule="evenodd" d="M608.8,553.2H854v-.7H608.8v.7Z" class="g0_2"/>
<path fill-rule="evenodd" d="M854,553.2h.7v-.7H854v.7Z" class="g0_2"/>
<path fill-rule="evenodd" d="M55,573.7h.7V553.2H55v20.5Z" class="g0_2"/>
<path fill-rule="evenodd" d="M137.2,573.7h.7V553.2h-.7v20.5Z" class="g0_2"/>
<path fill-rule="evenodd" d="M608.1,573.7h.7V553.2h-.7v20.5Z" class="g0_2"/>
<path fill-rule="evenodd" d="M854,573.7h.7V553.2H854v20.5Z" class="g0_2"/>
<path fill-rule="evenodd" d="M55,574.5h.7v-.8H55v.8Z" class="g0_2"/>
<path fill-rule="evenodd" d="M55.7,574.5h81.5v-.8H55.7v.8Z" class="g0_2"/>
<path fill-rule="evenodd" d="M137.2,574.5h.7v-.8h-.7v.8Z" class="g0_2"/>
<path fill-rule="evenodd" d="M137.9,574.5H608.1v-.8H137.9v.8Z" class="g0_2"/>
<path fill-rule="evenodd" d="M608.1,574.5h.7v-.8h-.7v.8Z" class="g0_2"/>
<path fill-rule="evenodd" d="M608.8,574.5H854v-.8H608.8v.8Z" class="g0_2"/>
<path fill-rule="evenodd" d="M854,574.5h.7v-.8H854v.8Z" class="g0_2"/>
<path fill-rule="evenodd" d="M55,595.2h.7V574.5H55v20.7Z" class="g0_2"/>
<path fill-rule="evenodd" d="M55,595.9h.7v-.7H55v.7Z" class="g0_2"/>
<path fill-rule="evenodd" d="M55,595.9h.7v-.7H55v.7Z" class="g0_2"/>
<path fill-rule="evenodd" d="M55.7,595.9H854v-.7H55.7v.7Z" class="g0_2"/>
<path fill-rule="evenodd" d="M854,595.2h.7V574.5H854v20.7Z" class="g0_2"/>
<path fill-rule="evenodd" d="M854,595.9h.7v-.7H854v.7Z" class="g0_2"/>
<path fill-rule="evenodd" d="M854,595.9h.7v-.7H854v.7Z" class="g0_2"/>
<path fill-rule="evenodd" d="M324.8,856.1h260V855h-260v1.1Z" class="g0_2"/>
<path fill-rule="evenodd" d="M63.6,881.8h.7v-.7h-.7v.7Z" class="g0_2"/>
<path fill-rule="evenodd" d="M63.6,881.8h.7v-.7h-.7v.7Z" class="g0_2"/>
<path fill-rule="evenodd" d="M64.3,881.8H166.5v-.7H64.3v.7Z" class="g0_2"/>
<path fill-rule="evenodd" d="M166.5,881.8h.7v-.7h-.7v.7Z" class="g0_2"/>
<path fill-rule="evenodd" d="M167.2,881.8H269.6v-.7H167.2v.7Z" class="g0_2"/>
<path fill-rule="evenodd" d="M269.6,881.8h.7v-.7h-.7v.7Z" class="g0_2"/>
<path fill-rule="evenodd" d="M270.3,881.8H871.2v-.7H270.3v.7Z" class="g0_2"/>
<path fill-rule="evenodd" d="M871.2,881.8h.7v-.7h-.7v.7Z" class="g0_2"/>
<path fill-rule="evenodd" d="M871.2,881.8h.7v-.7h-.7v.7Z" class="g0_2"/>
<path fill-rule="evenodd" d="M63.6,917.4h.7V881.8h-.7v35.6Z" class="g0_2"/>
<path fill-rule="evenodd" d="M166.5,917.4h.7V881.8h-.7v35.6Z" class="g0_2"/>
<path fill-rule="evenodd" d="M269.6,917.4h.7V881.8h-.7v35.6Z" class="g0_2"/>
<path fill-rule="evenodd" d="M871.2,917.4h.7V881.8h-.7v35.6Z" class="g0_2"/>
<path fill-rule="evenodd" d="M63.6,918.1h.7v-.7h-.7v.7Z" class="g0_2"/>
<path fill-rule="evenodd" d="M64.3,918.1H166.5v-.7H64.3v.7Z" class="g0_2"/>
<path fill-rule="evenodd" d="M166.5,918.1h.7v-.7h-.7v.7Z" class="g0_2"/>
<path fill-rule="evenodd" d="M167.2,918.1H269.6v-.7H167.2v.7Z" class="g0_2"/>
<path fill-rule="evenodd" d="M269.6,918.1h.7v-.7h-.7v.7Z" class="g0_2"/>
<path fill-rule="evenodd" d="M270.3,918.1H871.2v-.7H270.3v.7Z" class="g0_2"/>
<path fill-rule="evenodd" d="M871.2,918.1h.7v-.7h-.7v.7Z" class="g0_2"/>
<path fill-rule="evenodd" d="M63.6,953.9h.7V918.1h-.7v35.8Z" class="g0_2"/>
<path fill-rule="evenodd" d="M166.5,953.9h.7V918.1h-.7v35.8Z" class="g0_2"/>
<path fill-rule="evenodd" d="M269.6,953.9h.7V918.1h-.7v35.8Z" class="g0_2"/>
<path fill-rule="evenodd" d="M871.2,953.9h.7V918.1h-.7v35.8Z" class="g0_2"/>
<path fill-rule="evenodd" d="M63.6,954.6h.7v-.7h-.7v.7Z" class="g0_2"/>
<path fill-rule="evenodd" d="M64.3,954.6H166.5v-.7H64.3v.7Z" class="g0_2"/>
<path fill-rule="evenodd" d="M166.5,954.6h.7v-.7h-.7v.7Z" class="g0_2"/>
<path fill-rule="evenodd" d="M167.2,954.6H269.6v-.7H167.2v.7Z" class="g0_2"/>
<path fill-rule="evenodd" d="M269.6,954.6h.7v-.7h-.7v.7Z" class="g0_2"/>
<path fill-rule="evenodd" d="M270.3,954.6H871.2v-.7H270.3v.7Z" class="g0_2"/>
<path fill-rule="evenodd" d="M871.2,954.6h.7v-.7h-.7v.7Z" class="g0_2"/>
<path fill-rule="evenodd" d="M63.6,990.3h.7V954.6h-.7v35.7Z" class="g0_2"/>
<path fill-rule="evenodd" d="M166.5,990.3h.7V954.6h-.7v35.7Z" class="g0_2"/>
<path fill-rule="evenodd" d="M269.6,990.3h.7V954.6h-.7v35.7Z" class="g0_2"/>
<path fill-rule="evenodd" d="M871.2,990.3h.7V954.6h-.7v35.7Z" class="g0_2"/>
<path fill-rule="evenodd" d="M63.6,991.1h.7v-.8h-.7v.8Z" class="g0_2"/>
<path fill-rule="evenodd" d="M64.3,991.1H166.5v-.8H64.3v.8Z" class="g0_2"/>
<path fill-rule="evenodd" d="M166.5,991.1h.7v-.8h-.7v.8Z" class="g0_2"/>
<path fill-rule="evenodd" d="M167.2,991.1H269.6v-.8H167.2v.8Z" class="g0_2"/>
<path fill-rule="evenodd" d="M269.6,991.1h.7v-.8h-.7v.8Z" class="g0_2"/>
<path fill-rule="evenodd" d="M270.3,991.1H871.2v-.8H270.3v.8Z" class="g0_2"/>
<path fill-rule="evenodd" d="M871.2,991.1h.7v-.8h-.7v.8Z" class="g0_2"/>
<path fill-rule="evenodd" d="M63.6,1026.8h.7V991.1h-.7v35.7Z" class="g0_2"/>
<path fill-rule="evenodd" d="M166.5,1026.8h.7V991.1h-.7v35.7Z" class="g0_2"/>
<path fill-rule="evenodd" d="M269.6,1026.8h.7V991.1h-.7v35.7Z" class="g0_2"/>
<path fill-rule="evenodd" d="M871.2,1026.8h.7V991.1h-.7v35.7Z" class="g0_2"/>
<path fill-rule="evenodd" d="M63.6,1027.6h.7v-.8h-.7v.8Z" class="g0_2"/>
<path fill-rule="evenodd" d="M64.3,1027.6H166.5v-.8H64.3v.8Z" class="g0_2"/>
<path fill-rule="evenodd" d="M166.5,1027.6h.7v-.8h-.7v.8Z" class="g0_2"/>
<path fill-rule="evenodd" d="M167.2,1027.6H269.6v-.8H167.2v.8Z" class="g0_2"/>
<path fill-rule="evenodd" d="M269.6,1027.6h.7v-.8h-.7v.8Z" class="g0_2"/>
<path fill-rule="evenodd" d="M270.3,1027.6H871.2v-.8H270.3v.8Z" class="g0_2"/>
<path fill-rule="evenodd" d="M871.2,1027.6h.7v-.8h-.7v.8Z" class="g0_2"/>
<path fill-rule="evenodd" d="M63.6,1063.1h.7v-35.5h-.7v35.5Z" class="g0_2"/>
<path fill-rule="evenodd" d="M166.5,1063.1h.7v-35.5h-.7v35.5Z" class="g0_2"/>
<path fill-rule="evenodd" d="M269.6,1063.1h.7v-35.5h-.7v35.5Z" class="g0_2"/>
<path fill-rule="evenodd" d="M871.2,1063.1h.7v-35.5h-.7v35.5Z" class="g0_2"/>
<path fill-rule="evenodd" d="M63.6,1063.9h.7v-.8h-.7v.8Z" class="g0_2"/>
<path fill-rule="evenodd" d="M64.3,1063.9H166.5v-.8H64.3v.8Z" class="g0_2"/>
<path fill-rule="evenodd" d="M166.5,1063.9h.7v-.8h-.7v.8Z" class="g0_2"/>
<path fill-rule="evenodd" d="M167.2,1063.9H269.6v-.8H167.2v.8Z" class="g0_2"/>
<path fill-rule="evenodd" d="M269.6,1063.9h.7v-.8h-.7v.8Z" class="g0_2"/>
<path fill-rule="evenodd" d="M270.3,1063.9H871.2v-.8H270.3v.8Z" class="g0_2"/>
<path fill-rule="evenodd" d="M871.2,1063.9h.7v-.8h-.7v.8Z" class="g0_2"/>
<path fill-rule="evenodd" d="M63.6,1099.6h.7v-35.7h-.7v35.7Z" class="g0_2"/>
<path fill-rule="evenodd" d="M166.5,1099.6h.7v-35.7h-.7v35.7Z" class="g0_2"/>
<path fill-rule="evenodd" d="M269.6,1099.6h.7v-35.7h-.7v35.7Z" class="g0_2"/>
<path fill-rule="evenodd" d="M871.2,1099.6h.7v-35.7h-.7v35.7Z" class="g0_2"/>
<path fill-rule="evenodd" d="M63.6,1100.3h.7v-.7h-.7v.7Z" class="g0_2"/>
<path fill-rule="evenodd" d="M64.3,1100.3H166.5v-.7H64.3v.7Z" class="g0_2"/>
<path fill-rule="evenodd" d="M166.5,1100.3h.7v-.7h-.7v.7Z" class="g0_2"/>
<path fill-rule="evenodd" d="M167.2,1100.3H269.6v-.7H167.2v.7Z" class="g0_2"/>
<path fill-rule="evenodd" d="M269.6,1100.3h.7v-.7h-.7v.7Z" class="g0_2"/>
<path fill-rule="evenodd" d="M270.3,1100.3H871.2v-.7H270.3v.7Z" class="g0_2"/>
<path fill-rule="evenodd" d="M871.2,1100.3h.7v-.7h-.7v.7Z" class="g0_2"/>
<path fill-rule="evenodd" d="M63.6,1136.1h.7v-35.8h-.7v35.8Z" class="g0_2"/>
<path fill-rule="evenodd" d="M63.6,1136.8h.7v-.7h-.7v.7Z" class="g0_2"/>
<path fill-rule="evenodd" d="M63.6,1136.8h.7v-.7h-.7v.7Z" class="g0_2"/>
<path fill-rule="evenodd" d="M64.3,1136.8H166.5v-.7H64.3v.7Z" class="g0_2"/>
<path fill-rule="evenodd" d="M166.5,1136.1h.7v-35.8h-.7v35.8Z" class="g0_2"/>
<path fill-rule="evenodd" d="M166.5,1136.8h.7v-.7h-.7v.7Z" class="g0_2"/>
<path fill-rule="evenodd" d="M167.2,1136.8H269.6v-.7H167.2v.7Z" class="g0_2"/>
<path fill-rule="evenodd" d="M269.6,1136.1h.7v-35.8h-.7v35.8Z" class="g0_2"/>
<path fill-rule="evenodd" d="M269.6,1136.8h.7v-.7h-.7v.7Z" class="g0_2"/>
<path fill-rule="evenodd" d="M270.3,1136.8H871.2v-.7H270.3v.7Z" class="g0_2"/>
<path fill-rule="evenodd" d="M871.2,1136.1h.7v-35.8h-.7v35.8Z" class="g0_2"/>
<path fill-rule="evenodd" d="M871.2,1136.8h.7v-.7h-.7v.7Z" class="g0_2"/>
<path fill-rule="evenodd" d="M871.2,1136.8h.7v-.7h-.7v.7Z" class="g0_2"/>
<path fill-rule="evenodd" d="M61.4,635.5h.8v-.7h-.8v.7Z" class="g0_2"/>
<path fill-rule="evenodd" d="M61.4,635.5h.8v-.7h-.8v.7Z" class="g0_2"/>
<path fill-rule="evenodd" d="M62.2,635.5H356.8v-.7H62.2v.7Z" class="g0_2"/>
<path fill-rule="evenodd" d="M356.8,635.5h.8v-.7h-.8v.7Z" class="g0_2"/>
<path fill-rule="evenodd" d="M357.6,635.5H872.9v-.7H357.6v.7Z" class="g0_2"/>
<path fill-rule="evenodd" d="M872.9,635.5h.7v-.7h-.7v.7Z" class="g0_2"/>
<path fill-rule="evenodd" d="M872.9,635.5h.7v-.7h-.7v.7Z" class="g0_2"/>
<path fill-rule="evenodd" d="M61.4,689.4h.8V635.5h-.8v53.9Z" class="g0_2"/>
<path fill-rule="evenodd" d="M356.8,689.4h.8V635.5h-.8v53.9Z" class="g0_2"/>
<path fill-rule="evenodd" d="M872.9,689.4h.7V635.5h-.7v53.9Z" class="g0_2"/>
<path fill-rule="evenodd" d="M61.4,690.2h.8v-.8h-.8v.8Z" class="g0_2"/>
<path fill-rule="evenodd" d="M62.2,690.2H356.8v-.8H62.2v.8Z" class="g0_2"/>
<path fill-rule="evenodd" d="M356.8,690.2h.8v-.8h-.8v.8Z" class="g0_2"/>
<path fill-rule="evenodd" d="M357.6,690.2H872.9v-.8H357.6v.8Z" class="g0_2"/>
<path fill-rule="evenodd" d="M872.9,690.2h.7v-.8h-.7v.8Z" class="g0_2"/>
<path fill-rule="evenodd" d="M61.4,730.9h.8V690.2h-.8v40.7Z" class="g0_2"/>
<path fill-rule="evenodd" d="M356.8,730.9h.8V690.2h-.8v40.7Z" class="g0_2"/>
<path fill-rule="evenodd" d="M872.9,730.9h.7V690.2h-.7v40.7Z" class="g0_2"/>
<path fill-rule="evenodd" d="M61.4,731.6h.8v-.7h-.8v.7Z" class="g0_2"/>
<path fill-rule="evenodd" d="M62.2,731.6H356.8v-.7H62.2v.7Z" class="g0_2"/>
<path fill-rule="evenodd" d="M356.8,731.6h.8v-.7h-.8v.7Z" class="g0_2"/>
<path fill-rule="evenodd" d="M357.6,731.6H872.9v-.7H357.6v.7Z" class="g0_2"/>
<path fill-rule="evenodd" d="M872.9,731.6h.7v-.7h-.7v.7Z" class="g0_2"/>
<path fill-rule="evenodd" d="M61.4,772.3h.8V731.6h-.8v40.7Z" class="g0_2"/>
<path fill-rule="evenodd" d="M356.8,772.3h.8V731.6h-.8v40.7Z" class="g0_2"/>
<path fill-rule="evenodd" d="M872.9,772.3h.7V731.6h-.7v40.7Z" class="g0_2"/>
<path fill-rule="evenodd" d="M61.4,773h.8v-.7h-.8v.7Z" class="g0_2"/>
<path fill-rule="evenodd" d="M62.2,773H356.8v-.7H62.2v.7Z" class="g0_2"/>
<path fill-rule="evenodd" d="M356.8,773h.8v-.7h-.8v.7Z" class="g0_2"/>
<path fill-rule="evenodd" d="M357.6,773H872.9v-.7H357.6v.7Z" class="g0_2"/>
<path fill-rule="evenodd" d="M872.9,773h.7v-.7h-.7v.7Z" class="g0_2"/>
<path fill-rule="evenodd" d="M61.4,818.5h.8V773h-.8v45.5Z" class="g0_2"/>
<path fill-rule="evenodd" d="M61.4,819.2h.8v-.7h-.8v.7Z" class="g0_2"/>
<path fill-rule="evenodd" d="M61.4,819.2h.8v-.7h-.8v.7Z" class="g0_2"/>
<path fill-rule="evenodd" d="M62.2,819.2H356.8v-.7H62.2v.7Z" class="g0_2"/>
<path fill-rule="evenodd" d="M356.8,818.5h.8V773h-.8v45.5Z" class="g0_2"/>
<path fill-rule="evenodd" d="M356.8,819.2h.8v-.7h-.8v.7Z" class="g0_2"/>
<path fill-rule="evenodd" d="M357.6,819.2H872.9v-.7H357.6v.7Z" class="g0_2"/>
<path fill-rule="evenodd" d="M872.9,818.5h.7V773h-.7v45.5Z" class="g0_2"/>
<path fill-rule="evenodd" d="M872.9,819.2h.7v-.7h-.7v.7Z" class="g0_2"/>
<path fill-rule="evenodd" d="M872.9,819.2h.7v-.7h-.7v.7Z" class="g0_2"/>
</svg>