<?xml version="1.0" encoding="UTF-8" standalone="no"?>
<!DOCTYPE svg PUBLIC "-//W3C//DTD SVG 1.1//EN"
"http://www.w3.org/Graphics/SVG/1.1/DTD/svg11.dtd">
<svg viewBox="0 0 909 1286" version="1.1" xmlns="http://www.w3.org/2000/svg" xmlns:xlink="http://www.w3.org/1999/xlink">
<defs>
<clipPath id="c0_1"><path d="M55,89.5v-69H171.4v69Z"/></clipPath>
<style type="text/css"><![CDATA[
.g0_1{
fill: #000;
}
]]></style>
</defs>
<path fill-rule="evenodd" d="M53.9,90.2H171.5v-.7H53.9v.7Z" class="g0_1"/>
<path fill-rule="evenodd" d="M170.3,90.2h.8v-.7h-.8v.7Z" class="g0_1"/>
<path fill-rule="evenodd" d="M171.1,90.2H854v-.7H171.1v.7Z" class="g0_1"/>
<path fill-rule="evenodd" d="M55,111.6h.7v-.7H55v.7Z" class="g0_1"/>
<path fill-rule="evenodd" d="M55,111.6h.7v-.7H55v.7Z" class="g0_1"/>
<path fill-rule="evenodd" d="M55.7,111.6H701v-.7H55.7v.7Z" class="g0_1"/>
<path fill-rule="evenodd" d="M701,111.6h.8v-.7H701v.7Z" class="g0_1"/>
<path fill-rule="evenodd" d="M701.8,111.6H854.3v-.7H701.8v.7Z" class="g0_1"/>
<path fill-rule="evenodd" d="M854.3,111.6h.8v-.7h-.8v.7Z" class="g0_1"/>
<path fill-rule="evenodd" d="M854.3,111.6h.8v-.7h-.8v.7Z" class="g0_1"/>
<path fill-rule="evenodd" d="M55,138.4h.7V111.6H55v26.8Z" class="g0_1"/>
<path fill-rule="evenodd" d="M701,138.4h.8V111.6H701v26.8Z" class="g0_1"/>
<path fill-rule="evenodd" d="M854.3,138.4h.8V111.6h-.8v26.8Z" class="g0_1"/>
<path fill-rule="evenodd" d="M55,139.2h.7v-.8H55v.8Z" class="g0_1"/>
<path fill-rule="evenodd" d="M55.7,139.2H192.2v-.8H55.7v.8Z" class="g0_1"/>
<path fill-rule="evenodd" d="M192.2,139.2h.7v-.8h-.7v.8Z" class="g0_1"/>
<path fill-rule="evenodd" d="M192.9,139.2H433v-.8H192.9v.8Z" class="g0_1"/>
<path fill-rule="evenodd" d="M433,139.2h.7v-.8H433v.8Z" class="g0_1"/>
<path fill-rule="evenodd" d="M433.7,139.2H539.5v-.8H433.7v.8Z" class="g0_1"/>
<path fill-rule="evenodd" d="M539.5,139.2h.7v-.8h-.7v.8Z" class="g0_1"/>
<path fill-rule="evenodd" d="M540.2,139.2H701v-.8H540.2v.8Z" class="g0_1"/>
<path fill-rule="evenodd" d="M701,139.2h.8v-.8H701v.8Z" class="g0_1"/>
<path fill-rule="evenodd" d="M854.3,139.2h.8v-.8h-.8v.8Z" class="g0_1"/>
<path fill-rule="evenodd" d="M55,166.1h.7V139.2H55v26.9Z" class="g0_1"/>
<path fill-rule="evenodd" d="M192.2,166.1h.7V139.2h-.7v26.9Z" class="g0_1"/>
<path fill-rule="evenodd" d="M433,166.1h.7V139.2H433v26.9Z" class="g0_1"/>
<path fill-rule="evenodd" d="M539.5,166.1h.7V139.2h-.7v26.9Z" class="g0_1"/>
<path fill-rule="evenodd" d="M701,166.1h.8V139.2H701v26.9Z" class="g0_1"/>
<path fill-rule="evenodd" d="M854.3,166.1h.8V139.2h-.8v26.9Z" class="g0_1"/>
<path fill-rule="evenodd" d="M55,166.9h.7v-.8H55v.8Z" class="g0_1"/>
<path fill-rule="evenodd" d="M55.7,166.9H192.2v-.8H55.7v.8Z" class="g0_1"/>
<path fill-rule="evenodd" d="M192.2,166.9h.7v-.8h-.7v.8Z" class="g0_1"/>
<path fill-rule="evenodd" d="M192.9,166.9H433v-.8H192.9v.8Z" class="g0_1"/>
<path fill-rule="evenodd" d="M433,166.9h.7v-.8H433v.8Z" class="g0_1"/>
<path fill-rule="evenodd" d="M433.7,166.9H539.5v-.8H433.7v.8Z" class="g0_1"/>
<path fill-rule="evenodd" d="M539.5,166.9h.7v-.8h-.7v.8Z" class="g0_1"/>
<path fill-rule="evenodd" d="M540.2,166.9H701v-.8H540.2v.8Z" class="g0_1"/>
<path fill-rule="evenodd" d="M701,166.9h.8v-.8H701v.8Z" class="g0_1"/>
<path fill-rule="evenodd" d="M854.3,166.9h.8v-.8h-.8v.8Z" class="g0_1"/>
<path fill-rule="evenodd" d="M55,193.8h.7V166.9H55v26.9Z" class="g0_1"/>
<path fill-rule="evenodd" d="M192.2,193.8h.7V166.9h-.7v26.9Z" class="g0_1"/>
<path fill-rule="evenodd" d="M433,193.8h.7V166.9H433v26.9Z" class="g0_1"/>
<path fill-rule="evenodd" d="M539.5,193.8h.7V166.9h-.7v26.9Z" class="g0_1"/>
<path fill-rule="evenodd" d="M701,193.8h.8V166.9H701v26.9Z" class="g0_1"/>
<path fill-rule="evenodd" d="M854.3,193.8h.8V166.9h-.8v26.9Z" class="g0_1"/>
<path fill-rule="evenodd" d="M55,194.5h.7v-.7H55v.7Z" class="g0_1"/>
<path fill-rule="evenodd" d="M55.7,194.5H192.2v-.7H55.7v.7Z" class="g0_1"/>
<path fill-rule="evenodd" d="M192.2,194.5h.7v-.7h-.7v.7Z" class="g0_1"/>
<path fill-rule="evenodd" d="M192.9,194.5H433v-.7H192.9v.7Z" class="g0_1"/>
<path fill-rule="evenodd" d="M433,194.5h.7v-.7H433v.7Z" class="g0_1"/>
<path fill-rule="evenodd" d="M433.7,194.5H539.5v-.7H433.7v.7Z" class="g0_1"/>
<path fill-rule="evenodd" d="M539.5,194.5h.7v-.7h-.7v.7Z" class="g0_1"/>
<path fill-rule="evenodd" d="M540.2,194.5H701v-.7H540.2v.7Z" class="g0_1"/>
<path fill-rule="evenodd" d="M701,194.5h.8v-.7H701v.7Z" class="g0_1"/>
<path fill-rule="evenodd" d="M854.3,194.5h.8v-.7h-.8v.7Z" class="g0_1"/>
<path fill-rule="evenodd" d="M55,221.5h.7v-27H55v27Z" class="g0_1"/>
<path fill-rule="evenodd" d="M701,221.5h.8v-27H701v27Z" class="g0_1"/>
<path fill-rule="evenodd" d="M854.3,221.5h.8v-27h-.8v27Z" class="g0_1"/>
<path fill-rule="evenodd" d="M55,222.2h.7v-.7H55v.7Z" class="g0_1"/>
<path fill-rule="evenodd" d="M55.7,222.2h164v-.7H55.7v.7Z" class="g0_1"/>
<path fill-rule="evenodd" d="M219.7,222.2h.7v-.7h-.7v.7Z" class="g0_1"/>
<path fill-rule="evenodd" d="M220.4,222.2H701v-.7H220.4v.7Z" class="g0_1"/>
<path fill-rule="evenodd" d="M701,222.2h.8v-.7H701v.7Z" class="g0_1"/>
<path fill-rule="evenodd" d="M854.3,222.2h.8v-.7h-.8v.7Z" class="g0_1"/>
<path fill-rule="evenodd" d="M55,249h.7V222.2H55V249Z" class="g0_1"/>
<path fill-rule="evenodd" d="M219.7,249h.7V222.2h-.7V249Z" class="g0_1"/>
<path fill-rule="evenodd" d="M701,249h.8V222.2H701V249Z" class="g0_1"/>
<path fill-rule="evenodd" d="M854.3,249h.8V222.2h-.8V249Z" class="g0_1"/>
<path fill-rule="evenodd" d="M55,249.7h.7V249H55v.7Z" class="g0_1"/>
<path fill-rule="evenodd" d="M55.7,249.7h164V249H55.7v.7Z" class="g0_1"/>
<path fill-rule="evenodd" d="M219.7,249.7h.7V249h-.7v.7Z" class="g0_1"/>
<path fill-rule="evenodd" d="M220.4,249.7H433V249H220.4v.7Z" class="g0_1"/>
<path fill-rule="evenodd" d="M433,249.7h.7V249H433v.7Z" class="g0_1"/>
<path fill-rule="evenodd" d="M433.7,249.7H584.2V249H433.7v.7Z" class="g0_1"/>
<path fill-rule="evenodd" d="M584.3,249.7h.7V249h-.7v.7Z" class="g0_1"/>
<path fill-rule="evenodd" d="M585,249.7H701V249H585v.7Z" class="g0_1"/>
<path fill-rule="evenodd" d="M701,249.7h.8V249H701v.7Z" class="g0_1"/>
<path fill-rule="evenodd" d="M701.8,249.7H854.3V249H701.8v.7Z" class="g0_1"/>
<path fill-rule="evenodd" d="M854.3,249.7h.8V249h-.8v.7Z" class="g0_1"/>
<path fill-rule="evenodd" d="M55,276.7h.7v-27H55v27Z" class="g0_1"/>
<path fill-rule="evenodd" d="M219.7,276.7h.7v-27h-.7v27Z" class="g0_1"/>
<path fill-rule="evenodd" d="M433,276.7h.7v-27H433v27Z" class="g0_1"/>
<path fill-rule="evenodd" d="M584.3,276.7h.7v-27h-.7v27Z" class="g0_1"/>
<path fill-rule="evenodd" d="M854.3,276.7h.8v-27h-.8v27Z" class="g0_1"/>
<path fill-rule="evenodd" d="M55,277.4h.7v-.7H55v.7Z" class="g0_1"/>
<path fill-rule="evenodd" d="M55.7,277.4h164v-.7H55.7v.7Z" class="g0_1"/>
<path fill-rule="evenodd" d="M219.7,277.4h.7v-.7h-.7v.7Z" class="g0_1"/>
<path fill-rule="evenodd" d="M220.4,277.4H433v-.7H220.4v.7Z" class="g0_1"/>
<path fill-rule="evenodd" d="M433,277.4h.7v-.7H433v.7Z" class="g0_1"/>
<path fill-rule="evenodd" d="M433.7,277.4H584.2v-.7H433.7v.7Z" class="g0_1"/>
<path fill-rule="evenodd" d="M584.3,277.4h.7v-.7h-.7v.7Z" class="g0_1"/>
<path fill-rule="evenodd" d="M585,277.4H854.3v-.7H585v.7Z" class="g0_1"/>
<path fill-rule="evenodd" d="M854.3,277.4h.8v-.7h-.8v.7Z" class="g0_1"/>
<path fill-rule="evenodd" d="M55,304.4h.7v-27H55v27Z" class="g0_1"/>
<path fill-rule="evenodd" d="M219.7,304.4h.7v-27h-.7v27Z" class="g0_1"/>
<path fill-rule="evenodd" d="M433,304.4h.7v-27H433v27Z" class="g0_1"/>
<path fill-rule="evenodd" d="M584.3,304.4h.7v-27h-.7v27Z" class="g0_1"/>
<path fill-rule="evenodd" d="M854.3,304.4h.8v-27h-.8v27Z" class="g0_1"/>
<path fill-rule="evenodd" d="M55,305.1h.7v-.7H55v.7Z" class="g0_1"/>
<path fill-rule="evenodd" d="M55.7,305.1h164v-.7H55.7v.7Z" class="g0_1"/>
<path fill-rule="evenodd" d="M219.7,305.1h.7v-.7h-.7v.7Z" class="g0_1"/>
<path fill-rule="evenodd" d="M220.4,305.1H433v-.7H220.4v.7Z" class="g0_1"/>
<path fill-rule="evenodd" d="M433,305.1h.7v-.7H433v.7Z" class="g0_1"/>
<path fill-rule="evenodd" d="M433.7,305.1H584.2v-.7H433.7v.7Z" class="g0_1"/>
<path fill-rule="evenodd" d="M584.3,305.1h.7v-.7h-.7v.7Z" class="g0_1"/>
<path fill-rule="evenodd" d="M585,305.1H854.3v-.7H585v.7Z" class="g0_1"/>
<path fill-rule="evenodd" d="M854.3,305.1h.8v-.7h-.8v.7Z" class="g0_1"/>
<path fill-rule="evenodd" d="M55,331.9h.7V305.1H55v26.8Z" class="g0_1"/>
<path fill-rule="evenodd" d="M219.7,331.9h.7V305.1h-.7v26.8Z" class="g0_1"/>
<path fill-rule="evenodd" d="M433,331.9h.7V305.1H433v26.8Z" class="g0_1"/>
<path fill-rule="evenodd" d="M584.3,331.9h.7V305.1h-.7v26.8Z" class="g0_1"/>
<path fill-rule="evenodd" d="M854.3,331.9h.8V305.1h-.8v26.8Z" class="g0_1"/>
<path fill-rule="evenodd" d="M55,332.6h.7v-.7H55v.7Z" class="g0_1"/>
<path fill-rule="evenodd" d="M55.7,332.6h164v-.7H55.7v.7Z" class="g0_1"/>
<path fill-rule="evenodd" d="M219.7,332.6h.7v-.7h-.7v.7Z" class="g0_1"/>
<path fill-rule="evenodd" d="M220.4,332.6H433v-.7H220.4v.7Z" class="g0_1"/>
<path fill-rule="evenodd" d="M433,332.6h.7v-.7H433v.7Z" class="g0_1"/>
<path fill-rule="evenodd" d="M433.7,332.6H584.2v-.7H433.7v.7Z" class="g0_1"/>
<path fill-rule="evenodd" d="M584.3,332.6h.7v-.7h-.7v.7Z" class="g0_1"/>
<path fill-rule="evenodd" d="M585,332.6H854.3v-.7H585v.7Z" class="g0_1"/>
<path fill-rule="evenodd" d="M854.3,332.6h.8v-.7h-.8v.7Z" class="g0_1"/>
<path fill-rule="evenodd" d="M55,359.5h.7V332.6H55v26.9Z" class="g0_1"/>
<path fill-rule="evenodd" d="M219.7,359.5h.7V332.6h-.7v26.9Z" class="g0_1"/>
<path fill-rule="evenodd" d="M433,359.5h.7V332.6H433v26.9Z" class="g0_1"/>
<path fill-rule="evenodd" d="M584.3,359.5h.7V332.6h-.7v26.9Z" class="g0_1"/>
<path fill-rule="evenodd" d="M854.3,359.5h.8V332.6h-.8v26.9Z" class="g0_1"/>
<path fill-rule="evenodd" d="M55,360.3h.7v-.8H55v.8Z" class="g0_1"/>
<path fill-rule="evenodd" d="M55.7,360.3h164v-.8H55.7v.8Z" class="g0_1"/>
<path fill-rule="evenodd" d="M219.7,360.3h.7v-.8h-.7v.8Z" class="g0_1"/>
<path fill-rule="evenodd" d="M220.4,360.3H433v-.8H220.4v.8Z" class="g0_1"/>
<path fill-rule="evenodd" d="M433,360.3h.7v-.8H433v.8Z" class="g0_1"/>
<path fill-rule="evenodd" d="M433.7,360.3H584.2v-.8H433.7v.8Z" class="g0_1"/>
<path fill-rule="evenodd" d="M584.3,360.3h.7v-.8h-.7v.8Z" class="g0_1"/>
<path fill-rule="evenodd" d="M585,360.3H854.3v-.8H585v.8Z" class="g0_1"/>
<path fill-rule="evenodd" d="M854.3,360.3h.8v-.8h-.8v.8Z" class="g0_1"/>
<path fill-rule="evenodd" d="M55,387.3h.7v-27H55v27Z" class="g0_1"/>
<path fill-rule="evenodd" d="M219.7,387.3h.7v-27h-.7v27Z" class="g0_1"/>
<path fill-rule="evenodd" d="M854.3,387.3h.8v-27h-.8v27Z" class="g0_1"/>
<path fill-rule="evenodd" d="M55,388h.7v-.7H55v.7Z" class="g0_1"/>
<path fill-rule="evenodd" d="M55.7,388h164v-.7H55.7v.7Z" class="g0_1"/>
<path fill-rule="evenodd" d="M219.7,388h.7v-.7h-.7v.7Z" class="g0_1"/>
<path fill-rule="evenodd" d="M220.4,388H854.3v-.7H220.4v.7Z" class="g0_1"/>
<path fill-rule="evenodd" d="M854.3,388h.8v-.7h-.8v.7Z" class="g0_1"/>
<path fill-rule="evenodd" d="M55,415h.7V388H55v27Z" class="g0_1"/>
<path fill-rule="evenodd" d="M854.3,415h.8V388h-.8v27Z" class="g0_1"/>
<path fill-rule="evenodd" d="M55,415.7h.7V415H55v.7Z" class="g0_1"/>
<path fill-rule="evenodd" d="M55.7,415.7h164V415H55.7v.7Z" class="g0_1"/>
<path fill-rule="evenodd" d="M219.7,415.7h.7V415h-.7v.7Z" class="g0_1"/>
<path fill-rule="evenodd" d="M220.4,415.7H433V415H220.4v.7Z" class="g0_1"/>
<path fill-rule="evenodd" d="M433,415.7h.7V415H433v.7Z" class="g0_1"/>
<path fill-rule="evenodd" d="M433.7,415.7H584.2V415H433.7v.7Z" class="g0_1"/>
<path fill-rule="evenodd" d="M584.3,415.7h.7V415h-.7v.7Z" class="g0_1"/>
<path fill-rule="evenodd" d="M585,415.7H854.3V415H585v.7Z" class="g0_1"/>
<path fill-rule="evenodd" d="M854.3,415.7h.8V415h-.8v.7Z" class="g0_1"/>
<path fill-rule="evenodd" d="M55,442.5h.7V415.7H55v26.8Z" class="g0_1"/>
<path fill-rule="evenodd" d="M219.7,442.5h.7V415.7h-.7v26.8Z" class="g0_1"/>
<path fill-rule="evenodd" d="M433,442.5h.7V415.7H433v26.8Z" class="g0_1"/>
<path fill-rule="evenodd" d="M584.3,442.5h.7V415.7h-.7v26.8Z" class="g0_1"/>
<path fill-rule="evenodd" d="M854.3,442.5h.8V415.7h-.8v26.8Z" class="g0_1"/>
<path fill-rule="evenodd" d="M55,443.2h.7v-.7H55v.7Z" class="g0_1"/>
<path fill-rule="evenodd" d="M55.7,443.2h164v-.7H55.7v.7Z" class="g0_1"/>
<path fill-rule="evenodd" d="M219.7,443.2h.7v-.7h-.7v.7Z" class="g0_1"/>
<path fill-rule="evenodd" d="M220.4,443.2H433v-.7H220.4v.7Z" class="g0_1"/>
<path fill-rule="evenodd" d="M433,443.2h.7v-.7H433v.7Z" class="g0_1"/>
<path fill-rule="evenodd" d="M433.7,443.2H584.2v-.7H433.7v.7Z" class="g0_1"/>
<path fill-rule="evenodd" d="M584.3,443.2h.7v-.7h-.7v.7Z" class="g0_1"/>
<path fill-rule="evenodd" d="M585,443.2H854.3v-.7H585v.7Z" class="g0_1"/>
<path fill-rule="evenodd" d="M854.3,443.2h.8v-.7h-.8v.7Z" class="g0_1"/>
<path fill-rule="evenodd" d="M55,470.1h.7V443.2H55v26.9Z" class="g0_1"/>
<path fill-rule="evenodd" d="M219.7,470.1h.7V443.2h-.7v26.9Z" class="g0_1"/>
<path fill-rule="evenodd" d="M433,470.1h.7V443.2H433v26.9Z" class="g0_1"/>
<path fill-rule="evenodd" d="M584.3,470.1h.7V443.2h-.7v26.9Z" class="g0_1"/>
<path fill-rule="evenodd" d="M854.3,470.1h.8V443.2h-.8v26.9Z" class="g0_1"/>
<path fill-rule="evenodd" d="M55,470.9h.7v-.8H55v.8Z" class="g0_1"/>
<path fill-rule="evenodd" d="M55.7,470.9h164v-.8H55.7v.8Z" class="g0_1"/>
<path fill-rule="evenodd" d="M219.7,470.9h.7v-.8h-.7v.8Z" class="g0_1"/>
<path fill-rule="evenodd" d="M220.4,470.9H433v-.8H220.4v.8Z" class="g0_1"/>
<path fill-rule="evenodd" d="M433,470.9h.7v-.8H433v.8Z" class="g0_1"/>
<path fill-rule="evenodd" d="M433.7,470.9H584.2v-.8H433.7v.8Z" class="g0_1"/>
<path fill-rule="evenodd" d="M584.3,470.9h.7v-.8h-.7v.8Z" class="g0_1"/>
<path fill-rule="evenodd" d="M585,470.9H854.3v-.8H585v.8Z" class="g0_1"/>
<path fill-rule="evenodd" d="M854.3,470.9h.8v-.8h-.8v.8Z" class="g0_1"/>
<path fill-rule="evenodd" d="M55,497.8h.7V470.9H55v26.9Z" class="g0_1"/>
<path fill-rule="evenodd" d="M219.7,497.8h.7V470.9h-.7v26.9Z" class="g0_1"/>
<path fill-rule="evenodd" d="M433,497.8h.7V470.9H433v26.9Z" class="g0_1"/>
<path fill-rule="evenodd" d="M584.3,497.8h.7V470.9h-.7v26.9Z" class="g0_1"/>
<path fill-rule="evenodd" d="M854.3,497.8h.8V470.9h-.8v26.9Z" class="g0_1"/>
<path fill-rule="evenodd" d="M55,498.6h.7v-.8H55v.8Z" class="g0_1"/>
<path fill-rule="evenodd" d="M55.7,498.6h164v-.8H55.7v.8Z" class="g0_1"/>
<path fill-rule="evenodd" d="M219.7,498.6h.7v-.8h-.7v.8Z" class="g0_1"/>
<path fill-rule="evenodd" d="M220.4,498.6H433v-.8H220.4v.8Z" class="g0_1"/>
<path fill-rule="evenodd" d="M433,498.6h.7v-.8H433v.8Z" class="g0_1"/>
<path fill-rule="evenodd" d="M433.7,498.6H584.2v-.8H433.7v.8Z" class="g0_1"/>
<path fill-rule="evenodd" d="M584.3,498.6h.7v-.8h-.7v.8Z" class="g0_1"/>
<path fill-rule="evenodd" d="M585,498.6H854.3v-.8H585v.8Z" class="g0_1"/>
<path fill-rule="evenodd" d="M854.3,498.6h.8v-.8h-.8v.8Z" class="g0_1"/>
<path fill-rule="evenodd" d="M55,525.3h.7V498.6H55v26.7Z" class="g0_1"/>
<path fill-rule="evenodd" d="M219.7,525.3h.7V498.6h-.7v26.7Z" class="g0_1"/>
<path fill-rule="evenodd" d="M433,525.3h.7V498.6H433v26.7Z" class="g0_1"/>
<path fill-rule="evenodd" d="M584.3,525.3h.7V498.6h-.7v26.7Z" class="g0_1"/>
<path fill-rule="evenodd" d="M854.3,525.3h.8V498.6h-.8v26.7Z" class="g0_1"/>
<path fill-rule="evenodd" d="M55,526.1h.7v-.8H55v.8Z" class="g0_1"/>
<path fill-rule="evenodd" d="M55.7,526.1h164v-.8H55.7v.8Z" class="g0_1"/>
<path fill-rule="evenodd" d="M219.7,526.1h.7v-.8h-.7v.8Z" class="g0_1"/>
<path fill-rule="evenodd" d="M220.4,526.1H433v-.8H220.4v.8Z" class="g0_1"/>
<path fill-rule="evenodd" d="M433,526.1h.7v-.8H433v.8Z" class="g0_1"/>
<path fill-rule="evenodd" d="M433.7,526.1H584.2v-.8H433.7v.8Z" class="g0_1"/>
<path fill-rule="evenodd" d="M584.3,526.1h.7v-.8h-.7v.8Z" class="g0_1"/>
<path fill-rule="evenodd" d="M585,526.1H854.3v-.8H585v.8Z" class="g0_1"/>
<path fill-rule="evenodd" d="M854.3,526.1h.8v-.8h-.8v.8Z" class="g0_1"/>
<path fill-rule="evenodd" d="M55,553h.7V526.1H55V553Z" class="g0_1"/>
<path fill-rule="evenodd" d="M219.7,553h.7V526.1h-.7V553Z" class="g0_1"/>
<path fill-rule="evenodd" d="M433,553h.7V526.1H433V553Z" class="g0_1"/>
<path fill-rule="evenodd" d="M584.3,553h.7V526.1h-.7V553Z" class="g0_1"/>
<path fill-rule="evenodd" d="M854.3,553h.8V526.1h-.8V553Z" class="g0_1"/>
<path fill-rule="evenodd" d="M55,553.7h.7V553H55v.7Z" class="g0_1"/>
<path fill-rule="evenodd" d="M55.7,553.7h164V553H55.7v.7Z" class="g0_1"/>
<path fill-rule="evenodd" d="M219.7,553.7h.7V553h-.7v.7Z" class="g0_1"/>
<path fill-rule="evenodd" d="M220.4,553.7H433V553H220.4v.7Z" class="g0_1"/>
<path fill-rule="evenodd" d="M433,553.7h.7V553H433v.7Z" class="g0_1"/>
<path fill-rule="evenodd" d="M433.7,553.7H584.2V553H433.7v.7Z" class="g0_1"/>
<path fill-rule="evenodd" d="M584.3,553.7h.7V553h-.7v.7Z" class="g0_1"/>
<path fill-rule="evenodd" d="M585,553.7H854.3V553H585v.7Z" class="g0_1"/>
<path fill-rule="evenodd" d="M854.3,553.7h.8V553h-.8v.7Z" class="g0_1"/>
<path fill-rule="evenodd" d="M55,648h.7V553.7H55V648Z" class="g0_1"/>
<path fill-rule="evenodd" d="M433,648h.7V553.7H433V648Z" class="g0_1"/>
<path fill-rule="evenodd" d="M854.3,648h.8V553.7h-.8V648Z" class="g0_1"/>
<path fill-rule="evenodd" d="M55,648.7h.7V648H55v.7Z" class="g0_1"/>
<path fill-rule="evenodd" d="M55.7,648.7H433V648H55.7v.7Z" class="g0_1"/>
<path fill-rule="evenodd" d="M433,648.7h.7V648H433v.7Z" class="g0_1"/>
<path fill-rule="evenodd" d="M433.7,648.7H854.3V648H433.7v.7Z" class="g0_1"/>
<path fill-rule="evenodd" d="M854.3,648.7h.8V648h-.8v.7Z" class="g0_1"/>
<path fill-rule="evenodd" d="M55,675.5h.7V648.7H55v26.8Z" class="g0_1"/>
<path fill-rule="evenodd" d="M854.3,675.5h.8V648.7h-.8v26.8Z" class="g0_1"/>
<path fill-rule="evenodd" d="M55,676.2h.7v-.7H55v.7Z" class="g0_1"/>
<path fill-rule="evenodd" d="M55.7,676.2h164v-.7H55.7v.7Z" class="g0_1"/>
<path fill-rule="evenodd" d="M219.7,676.2h.7v-.7h-.7v.7Z" class="g0_1"/>
<path fill-rule="evenodd" d="M220.4,676.2H433v-.7H220.4v.7Z" class="g0_1"/>
<path fill-rule="evenodd" d="M433,676.2h.7v-.7H433v.7Z" class="g0_1"/>
<path fill-rule="evenodd" d="M433.7,676.2H701v-.7H433.7v.7Z" class="g0_1"/>
<path fill-rule="evenodd" d="M701,676.2h.8v-.7H701v.7Z" class="g0_1"/>
<path fill-rule="evenodd" d="M701.8,676.2H854.3v-.7H701.8v.7Z" class="g0_1"/>
<path fill-rule="evenodd" d="M854.3,676.2h.8v-.7h-.8v.7Z" class="g0_1"/>
<path fill-rule="evenodd" d="M55,703.2h.7v-27H55v27Z" class="g0_1"/>
<path fill-rule="evenodd" d="M219.7,703.2h.7v-27h-.7v27Z" class="g0_1"/>
<path fill-rule="evenodd" d="M433,703.2h.7v-27H433v27Z" class="g0_1"/>
<path fill-rule="evenodd" d="M701,703.2h.8v-27H701v27Z" class="g0_1"/>
<path fill-rule="evenodd" d="M854.3,703.2h.8v-27h-.8v27Z" class="g0_1"/>
<path fill-rule="evenodd" d="M55,703.9h.7v-.7H55v.7Z" class="g0_1"/>
<path fill-rule="evenodd" d="M55.7,703.9h164v-.7H55.7v.7Z" class="g0_1"/>
<path fill-rule="evenodd" d="M219.7,703.9h.7v-.7h-.7v.7Z" class="g0_1"/>
<path fill-rule="evenodd" d="M220.4,703.9H433v-.7H220.4v.7Z" class="g0_1"/>
<path fill-rule="evenodd" d="M433,703.9h.7v-.7H433v.7Z" class="g0_1"/>
<path fill-rule="evenodd" d="M433.7,703.9H701v-.7H433.7v.7Z" class="g0_1"/>
<path fill-rule="evenodd" d="M701,703.9h.8v-.7H701v.7Z" class="g0_1"/>
<path fill-rule="evenodd" d="M701.8,703.9H854.3v-.7H701.8v.7Z" class="g0_1"/>
<path fill-rule="evenodd" d="M854.3,703.9h.8v-.7h-.8v.7Z" class="g0_1"/>
<path fill-rule="evenodd" d="M55,749.2h.7V703.9H55v45.3Z" class="g0_1"/>
<path fill-rule="evenodd" d="M219.7,749.2h.7V703.9h-.7v45.3Z" class="g0_1"/>
<path fill-rule="evenodd" d="M433,749.2h.7V703.9H433v45.3Z" class="g0_1"/>
<path fill-rule="evenodd" d="M701,749.2h.8V703.9H701v45.3Z" class="g0_1"/>
<path fill-rule="evenodd" d="M854.3,749.2h.8V703.9h-.8v45.3Z" class="g0_1"/>
<path fill-rule="evenodd" d="M55,749.9h.7v-.7H55v.7Z" class="g0_1"/>
<path fill-rule="evenodd" d="M55.7,749.9h164v-.7H55.7v.7Z" class="g0_1"/>
<path fill-rule="evenodd" d="M219.7,749.9h.7v-.7h-.7v.7Z" class="g0_1"/>
<path fill-rule="evenodd" d="M220.4,749.9H433v-.7H220.4v.7Z" class="g0_1"/>
<path fill-rule="evenodd" d="M433,749.9h.7v-.7H433v.7Z" class="g0_1"/>
<path fill-rule="evenodd" d="M433.7,749.9H701v-.7H433.7v.7Z" class="g0_1"/>
<path fill-rule="evenodd" d="M701,749.9h.8v-.7H701v.7Z" class="g0_1"/>
<path fill-rule="evenodd" d="M701.8,749.9H854.3v-.7H701.8v.7Z" class="g0_1"/>
<path fill-rule="evenodd" d="M854.3,749.9h.8v-.7h-.8v.7Z" class="g0_1"/>
<path fill-rule="evenodd" d="M55,795h.7V749.9H55V795Z" class="g0_1"/>
<path fill-rule="evenodd" d="M219.7,795h.7V749.9h-.7V795Z" class="g0_1"/>
<path fill-rule="evenodd" d="M433,795h.7V749.9H433V795Z" class="g0_1"/>
<path fill-rule="evenodd" d="M701,795h.8V749.9H701V795Z" class="g0_1"/>
<path fill-rule="evenodd" d="M854.3,795h.8V749.9h-.8V795Z" class="g0_1"/>
<path fill-rule="evenodd" d="M55,795.8h.7V795H55v.8Z" class="g0_1"/>
<path fill-rule="evenodd" d="M55.7,795.8h164V795H55.7v.8Z" class="g0_1"/>
<path fill-rule="evenodd" d="M219.7,795.8h.7V795h-.7v.8Z" class="g0_1"/>
<path fill-rule="evenodd" d="M220.4,795.8H433V795H220.4v.8Z" class="g0_1"/>
<path fill-rule="evenodd" d="M433,795.8h.7V795H433v.8Z" class="g0_1"/>
<path fill-rule="evenodd" d="M433.7,795.8H701V795H433.7v.8Z" class="g0_1"/>
<path fill-rule="evenodd" d="M701,795.8h.8V795H701v.8Z" class="g0_1"/>
<path fill-rule="evenodd" d="M701.8,795.8H854.3V795H701.8v.8Z" class="g0_1"/>
<path fill-rule="evenodd" d="M854.3,795.8h.8V795h-.8v.8Z" class="g0_1"/>
<path fill-rule="evenodd" d="M55,822.7h.7V795.8H55v26.9Z" class="g0_1"/>
<path fill-rule="evenodd" d="M219.7,822.7h.7V795.8h-.7v26.9Z" class="g0_1"/>
<path fill-rule="evenodd" d="M433,822.7h.7V795.8H433v26.9Z" class="g0_1"/>
<path fill-rule="evenodd" d="M701,822.7h.8V795.8H701v26.9Z" class="g0_1"/>
<path fill-rule="evenodd" d="M854.3,822.7h.8V795.8h-.8v26.9Z" class="g0_1"/>
<path fill-rule="evenodd" d="M55,823.5h.7v-.8H55v.8Z" class="g0_1"/>
<path fill-rule="evenodd" d="M55.7,823.5h164v-.8H55.7v.8Z" class="g0_1"/>
<path fill-rule="evenodd" d="M219.7,823.5h.7v-.8h-.7v.8Z" class="g0_1"/>
<path fill-rule="evenodd" d="M220.4,823.5H433v-.8H220.4v.8Z" class="g0_1"/>
<path fill-rule="evenodd" d="M433,823.5h.7v-.8H433v.8Z" class="g0_1"/>
<path fill-rule="evenodd" d="M433.7,823.5H701v-.8H433.7v.8Z" class="g0_1"/>
<path fill-rule="evenodd" d="M701,823.5h.8v-.8H701v.8Z" class="g0_1"/>
<path fill-rule="evenodd" d="M701.8,823.5H854.3v-.8H701.8v.8Z" class="g0_1"/>
<path fill-rule="evenodd" d="M854.3,823.5h.8v-.8h-.8v.8Z" class="g0_1"/>
<path fill-rule="evenodd" d="M55,850.4h.7V823.5H55v26.9Z" class="g0_1"/>
<path fill-rule="evenodd" d="M854.3,850.4h.8V823.5h-.8v26.9Z" class="g0_1"/>
<path fill-rule="evenodd" d="M55,851.1h.7v-.7H55v.7Z" class="g0_1"/>
<path fill-rule="evenodd" d="M55.7,851.1H316v-.7H55.7v.7Z" class="g0_1"/>
<path fill-rule="evenodd" d="M316,851.1h.7v-.7H316v.7Z" class="g0_1"/>
<path fill-rule="evenodd" d="M316.7,851.1H854.3v-.7H316.7v.7Z" class="g0_1"/>
<path fill-rule="evenodd" d="M854.3,851.1h.8v-.7h-.8v.7Z" class="g0_1"/>
<path fill-rule="evenodd" d="M55,905.3h.7V851.1H55v54.2Z" class="g0_1"/>
<path fill-rule="evenodd" d="M316,905.3h.7V851.1H316v54.2Z" class="g0_1"/>
<path fill-rule="evenodd" d="M854.3,905.3h.8V851.1h-.8v54.2Z" class="g0_1"/>
<path fill-rule="evenodd" d="M55,906h.7v-.7H55v.7Z" class="g0_1"/>
<path fill-rule="evenodd" d="M55.7,906H316v-.7H55.7v.7Z" class="g0_1"/>
<path fill-rule="evenodd" d="M316,906h.7v-.7H316v.7Z" class="g0_1"/>
<path fill-rule="evenodd" d="M316.7,906H854.3v-.7H316.7v.7Z" class="g0_1"/>
<path fill-rule="evenodd" d="M854.3,906h.8v-.7h-.8v.7Z" class="g0_1"/>
<path fill-rule="evenodd" d="M55,960.3h.7V906H55v54.3Z" class="g0_1"/>
<path fill-rule="evenodd" d="M316,960.3h.7V906H316v54.3Z" class="g0_1"/>
<path fill-rule="evenodd" d="M854.3,960.3h.8V906h-.8v54.3Z" class="g0_1"/>
<path fill-rule="evenodd" d="M55,961h.7v-.7H55v.7Z" class="g0_1"/>
<path fill-rule="evenodd" d="M55.7,961H316v-.7H55.7v.7Z" class="g0_1"/>
<path fill-rule="evenodd" d="M316,961h.7v-.7H316v.7Z" class="g0_1"/>
<path fill-rule="evenodd" d="M316.7,961H854.3v-.7H316.7v.7Z" class="g0_1"/>
<path fill-rule="evenodd" d="M854.3,961h.8v-.7h-.8v.7Z" class="g0_1"/>
<path fill-rule="evenodd" d="M55,1015.3h.7V961H55v54.3Z" class="g0_1"/>
<path fill-rule="evenodd" d="M316,1015.3h.7V961H316v54.3Z" class="g0_1"/>
<path fill-rule="evenodd" d="M854.3,1015.3h.8V961h-.8v54.3Z" class="g0_1"/>
<path fill-rule="evenodd" d="M55,1016h.7v-.7H55v.7Z" class="g0_1"/>
<path fill-rule="evenodd" d="M55.7,1016H316v-.7H55.7v.7Z" class="g0_1"/>
<path fill-rule="evenodd" d="M316,1016h.7v-.7H316v.7Z" class="g0_1"/>
<path fill-rule="evenodd" d="M316.7,1016H854.3v-.7H316.7v.7Z" class="g0_1"/>
<path fill-rule="evenodd" d="M854.3,1016h.8v-.7h-.8v.7Z" class="g0_1"/>
<path fill-rule="evenodd" d="M55,1070.1h.7V1016H55v54.1Z" class="g0_1"/>
<path fill-rule="evenodd" d="M316,1070.1h.7V1016H316v54.1Z" class="g0_1"/>
<path fill-rule="evenodd" d="M854.3,1070.1h.8V1016h-.8v54.1Z" class="g0_1"/>
<path fill-rule="evenodd" d="M55,1070.8h.7v-.7H55v.7Z" class="g0_1"/>
<path fill-rule="evenodd" d="M55.7,1070.8H316v-.7H55.7v.7Z" class="g0_1"/>
<path fill-rule="evenodd" d="M316,1070.8h.7v-.7H316v.7Z" class="g0_1"/>
<path fill-rule="evenodd" d="M316.7,1070.8H854.3v-.7H316.7v.7Z" class="g0_1"/>
<path fill-rule="evenodd" d="M854.3,1070.8h.8v-.7h-.8v.7Z" class="g0_1"/>
<path fill-rule="evenodd" d="M55,1125.1h.7v-54.3H55v54.3Z" class="g0_1"/>
<path fill-rule="evenodd" d="M316,1125.1h.7v-54.3H316v54.3Z" class="g0_1"/>
<path fill-rule="evenodd" d="M854.3,1125.1h.8v-54.3h-.8v54.3Z" class="g0_1"/>
<path fill-rule="evenodd" d="M55,1125.8h.7v-.7H55v.7Z" class="g0_1"/>
<path fill-rule="evenodd" d="M55.7,1125.8H316v-.7H55.7v.7Z" class="g0_1"/>
<path fill-rule="evenodd" d="M316,1125.8h.7v-.7H316v.7Z" class="g0_1"/>
<path fill-rule="evenodd" d="M316.7,1125.8H854.3v-.7H316.7v.7Z" class="g0_1"/>
<path fill-rule="evenodd" d="M854.3,1125.8h.8v-.7h-.8v.7Z" class="g0_1"/>
<path fill-rule="evenodd" d="M55,1179.9h.7v-54.1H55v54.1Z" class="g0_1"/>
<path fill-rule="evenodd" d="M316,1179.9h.7v-54.1H316v54.1Z" class="g0_1"/>
<path fill-rule="evenodd" d="M854.3,1179.9h.8v-54.1h-.8v54.1Z" class="g0_1"/>
<path fill-rule="evenodd" d="M55,1180.7h.7v-.8H55v.8Z" class="g0_1"/>
<path fill-rule="evenodd" d="M55.7,1180.7H316v-.8H55.7v.8Z" class="g0_1"/>
<path fill-rule="evenodd" d="M316,1180.7h.7v-.8H316v.8Z" class="g0_1"/>
<path fill-rule="evenodd" d="M316.7,1180.7H854.3v-.8H316.7v.8Z" class="g0_1"/>
<path fill-rule="evenodd" d="M854.3,1180.7h.8v-.8h-.8v.8Z" class="g0_1"/>
<path fill-rule="evenodd" d="M55,1234.9h.7v-54.2H55v54.2Z" class="g0_1"/>
<path fill-rule="evenodd" d="M55,1235.7h.7v-.8H55v.8Z" class="g0_1"/>
<path fill-rule="evenodd" d="M55,1235.7h.7v-.8H55v.8Z" class="g0_1"/>
<path fill-rule="evenodd" d="M55.7,1235.7H316v-.8H55.7v.8Z" class="g0_1"/>
<path fill-rule="evenodd" d="M316,1234.9h.7v-54.2H316v54.2Z" class="g0_1"/>
<path fill-rule="evenodd" d="M316,1235.7h.7v-.8H316v.8Z" class="g0_1"/>
<path fill-rule="evenodd" d="M316.7,1235.7H854.3v-.8H316.7v.8Z" class="g0_1"/>
<path fill-rule="evenodd" d="M854.3,1234.9h.8v-54.2h-.8v54.2Z" class="g0_1"/>
<path fill-rule="evenodd" d="M854.3,1235.7h.8v-.8h-.8v.8Z" class="g0_1"/>
<path fill-rule="evenodd" d="M854.3,1235.7h.8v-.8h-.8v.8Z" class="g0_1"/>
<image clip-path="url(#c0_1)" preserveAspectRatio="none" x="78" y="21" width="70" height="68" xlink:href="img/1.png"/>
</svg>