<?xml version="1.0" encoding="UTF-8" standalone="no"?>
<!DOCTYPE svg PUBLIC "-//W3C//DTD SVG 1.1//EN"
"http://www.w3.org/Graphics/SVG/1.1/DTD/svg11.dtd">
<svg viewBox="0 0 909 1286" version="1.1" xmlns="http://www.w3.org/2000/svg" xmlns:xlink="http://www.w3.org/1999/xlink">
<defs>
<style type="text/css"><![CDATA[
.g0{
fill: #000;
}
]]></style>
</defs>
<path fill-rule="evenodd" d="M357,78.1H552.5V77H357v1.1Z" class="g0"/>
<path fill-rule="evenodd" d="M63.3,103.8H64V103h-.7v.8Z" class="g0"/>
<path fill-rule="evenodd" d="M63.3,103.8H64V103h-.7v.8Z" class="g0"/>
<path fill-rule="evenodd" d="M64,103.8h62.4V103H64v.8Z" class="g0"/>
<path fill-rule="evenodd" d="M126.4,103.8h.7V103h-.7v.8Z" class="g0"/>
<path fill-rule="evenodd" d="M127.1,103.8H355.9V103H127.1v.8Z" class="g0"/>
<path fill-rule="evenodd" d="M355.9,103.8h.8V103h-.8v.8Z" class="g0"/>
<path fill-rule="evenodd" d="M356.7,103.8H611.8V103H356.7v.8Z" class="g0"/>
<path fill-rule="evenodd" d="M611.8,103.8h.7V103h-.7v.8Z" class="g0"/>
<path fill-rule="evenodd" d="M612.5,103.8H708V103H612.5v.8Z" class="g0"/>
<path fill-rule="evenodd" d="M708,103.8h.7V103H708v.8Z" class="g0"/>
<path fill-rule="evenodd" d="M708.7,103.8H873V103H708.7v.8Z" class="g0"/>
<path fill-rule="evenodd" d="M873,103.8h.8V103H873v.8Z" class="g0"/>
<path fill-rule="evenodd" d="M873,103.8h.8V103H873v.8Z" class="g0"/>
<path fill-rule="evenodd" d="M63.3,148.5H64V103.8h-.7v44.7Z" class="g0"/>
<path fill-rule="evenodd" d="M126.4,148.5h.7V103.8h-.7v44.7Z" class="g0"/>
<path fill-rule="evenodd" d="M355.9,148.5h.8V103.8h-.8v44.7Z" class="g0"/>
<path fill-rule="evenodd" d="M611.8,148.5h.7V103.8h-.7v44.7Z" class="g0"/>
<path fill-rule="evenodd" d="M708,148.5h.7V103.8H708v44.7Z" class="g0"/>
<path fill-rule="evenodd" d="M873,148.5h.8V103.8H873v44.7Z" class="g0"/>
<path fill-rule="evenodd" d="M63.3,149.3H64v-.8h-.7v.8Z" class="g0"/>
<path fill-rule="evenodd" d="M64,149.3h62.4v-.8H64v.8Z" class="g0"/>
<path fill-rule="evenodd" d="M126.4,149.3h.7v-.8h-.7v.8Z" class="g0"/>
<path fill-rule="evenodd" d="M127.1,149.3H355.9v-.8H127.1v.8Z" class="g0"/>
<path fill-rule="evenodd" d="M355.9,149.3h.8v-.8h-.8v.8Z" class="g0"/>
<path fill-rule="evenodd" d="M356.7,149.3H611.8v-.8H356.7v.8Z" class="g0"/>
<path fill-rule="evenodd" d="M611.8,149.3h.7v-.8h-.7v.8Z" class="g0"/>
<path fill-rule="evenodd" d="M612.5,149.3H708v-.8H612.5v.8Z" class="g0"/>
<path fill-rule="evenodd" d="M708,149.3h.7v-.8H708v.8Z" class="g0"/>
<path fill-rule="evenodd" d="M708.7,149.3H873v-.8H708.7v.8Z" class="g0"/>
<path fill-rule="evenodd" d="M873,149.3h.8v-.8H873v.8Z" class="g0"/>
<path fill-rule="evenodd" d="M63.3,194.2H64V149.3h-.7v44.9Z" class="g0"/>
<path fill-rule="evenodd" d="M126.4,194.2h.7V149.3h-.7v44.9Z" class="g0"/>
<path fill-rule="evenodd" d="M355.9,194.2h.8V149.3h-.8v44.9Z" class="g0"/>
<path fill-rule="evenodd" d="M611.8,194.2h.7V149.3h-.7v44.9Z" class="g0"/>
<path fill-rule="evenodd" d="M708,194.2h.7V149.3H708v44.9Z" class="g0"/>
<path fill-rule="evenodd" d="M873,194.2h.8V149.3H873v44.9Z" class="g0"/>
<path fill-rule="evenodd" d="M63.3,194.9H64v-.7h-.7v.7Z" class="g0"/>
<path fill-rule="evenodd" d="M64,194.9h62.4v-.7H64v.7Z" class="g0"/>
<path fill-rule="evenodd" d="M126.4,194.9h.7v-.7h-.7v.7Z" class="g0"/>
<path fill-rule="evenodd" d="M127.1,194.9H355.9v-.7H127.1v.7Z" class="g0"/>
<path fill-rule="evenodd" d="M355.9,194.9h.8v-.7h-.8v.7Z" class="g0"/>
<path fill-rule="evenodd" d="M356.7,194.9H611.8v-.7H356.7v.7Z" class="g0"/>
<path fill-rule="evenodd" d="M611.8,194.9h.7v-.7h-.7v.7Z" class="g0"/>
<path fill-rule="evenodd" d="M612.5,194.9H708v-.7H612.5v.7Z" class="g0"/>
<path fill-rule="evenodd" d="M708,194.9h.7v-.7H708v.7Z" class="g0"/>
<path fill-rule="evenodd" d="M708.7,194.9H873v-.7H708.7v.7Z" class="g0"/>
<path fill-rule="evenodd" d="M873,194.9h.8v-.7H873v.7Z" class="g0"/>
<path fill-rule="evenodd" d="M63.3,239.6H64V194.9h-.7v44.7Z" class="g0"/>
<path fill-rule="evenodd" d="M126.4,239.6h.7V194.9h-.7v44.7Z" class="g0"/>
<path fill-rule="evenodd" d="M355.9,239.6h.8V194.9h-.8v44.7Z" class="g0"/>
<path fill-rule="evenodd" d="M611.8,239.6h.7V194.9h-.7v44.7Z" class="g0"/>
<path fill-rule="evenodd" d="M708,239.6h.7V194.9H708v44.7Z" class="g0"/>
<path fill-rule="evenodd" d="M873,239.6h.8V194.9H873v44.7Z" class="g0"/>
<path fill-rule="evenodd" d="M63.3,240.4H64v-.8h-.7v.8Z" class="g0"/>
<path fill-rule="evenodd" d="M64,240.4h62.4v-.8H64v.8Z" class="g0"/>
<path fill-rule="evenodd" d="M126.4,240.4h.7v-.8h-.7v.8Z" class="g0"/>
<path fill-rule="evenodd" d="M127.1,240.4H355.9v-.8H127.1v.8Z" class="g0"/>
<path fill-rule="evenodd" d="M355.9,240.4h.8v-.8h-.8v.8Z" class="g0"/>
<path fill-rule="evenodd" d="M356.7,240.4H611.8v-.8H356.7v.8Z" class="g0"/>
<path fill-rule="evenodd" d="M611.8,240.4h.7v-.8h-.7v.8Z" class="g0"/>
<path fill-rule="evenodd" d="M612.5,240.4H708v-.8H612.5v.8Z" class="g0"/>
<path fill-rule="evenodd" d="M708,240.4h.7v-.8H708v.8Z" class="g0"/>
<path fill-rule="evenodd" d="M708.7,240.4H873v-.8H708.7v.8Z" class="g0"/>
<path fill-rule="evenodd" d="M873,240.4h.8v-.8H873v.8Z" class="g0"/>
<path fill-rule="evenodd" d="M63.3,285.1H64V240.4h-.7v44.7Z" class="g0"/>
<path fill-rule="evenodd" d="M126.4,285.1h.7V240.4h-.7v44.7Z" class="g0"/>
<path fill-rule="evenodd" d="M355.9,285.1h.8V240.4h-.8v44.7Z" class="g0"/>
<path fill-rule="evenodd" d="M611.8,285.1h.7V240.4h-.7v44.7Z" class="g0"/>
<path fill-rule="evenodd" d="M708,285.1h.7V240.4H708v44.7Z" class="g0"/>
<path fill-rule="evenodd" d="M873,285.1h.8V240.4H873v44.7Z" class="g0"/>
<path fill-rule="evenodd" d="M63.3,285.8H64v-.7h-.7v.7Z" class="g0"/>
<path fill-rule="evenodd" d="M64,285.8h62.4v-.7H64v.7Z" class="g0"/>
<path fill-rule="evenodd" d="M126.4,285.8h.7v-.7h-.7v.7Z" class="g0"/>
<path fill-rule="evenodd" d="M127.1,285.8H355.9v-.7H127.1v.7Z" class="g0"/>
<path fill-rule="evenodd" d="M355.9,285.8h.8v-.7h-.8v.7Z" class="g0"/>
<path fill-rule="evenodd" d="M356.7,285.8H611.8v-.7H356.7v.7Z" class="g0"/>
<path fill-rule="evenodd" d="M611.8,285.8h.7v-.7h-.7v.7Z" class="g0"/>
<path fill-rule="evenodd" d="M612.5,285.8H708v-.7H612.5v.7Z" class="g0"/>
<path fill-rule="evenodd" d="M708,285.8h.7v-.7H708v.7Z" class="g0"/>
<path fill-rule="evenodd" d="M708.7,285.8H873v-.7H708.7v.7Z" class="g0"/>
<path fill-rule="evenodd" d="M873,285.8h.8v-.7H873v.7Z" class="g0"/>
<path fill-rule="evenodd" d="M63.3,330.8H64v-45h-.7v45Z" class="g0"/>
<path fill-rule="evenodd" d="M126.4,330.8h.7v-45h-.7v45Z" class="g0"/>
<path fill-rule="evenodd" d="M355.9,330.8h.8v-45h-.8v45Z" class="g0"/>
<path fill-rule="evenodd" d="M611.8,330.8h.7v-45h-.7v45Z" class="g0"/>
<path fill-rule="evenodd" d="M708,330.8h.7v-45H708v45Z" class="g0"/>
<path fill-rule="evenodd" d="M873,330.8h.8v-45H873v45Z" class="g0"/>
<path fill-rule="evenodd" d="M63.3,331.5H64v-.7h-.7v.7Z" class="g0"/>
<path fill-rule="evenodd" d="M64,331.5h62.4v-.7H64v.7Z" class="g0"/>
<path fill-rule="evenodd" d="M126.4,331.5h.7v-.7h-.7v.7Z" class="g0"/>
<path fill-rule="evenodd" d="M127.1,331.5H355.9v-.7H127.1v.7Z" class="g0"/>
<path fill-rule="evenodd" d="M355.9,331.5h.8v-.7h-.8v.7Z" class="g0"/>
<path fill-rule="evenodd" d="M356.7,331.5H611.8v-.7H356.7v.7Z" class="g0"/>
<path fill-rule="evenodd" d="M611.8,331.5h.7v-.7h-.7v.7Z" class="g0"/>
<path fill-rule="evenodd" d="M612.5,331.5H708v-.7H612.5v.7Z" class="g0"/>
<path fill-rule="evenodd" d="M708,331.5h.7v-.7H708v.7Z" class="g0"/>
<path fill-rule="evenodd" d="M708.7,331.5H873v-.7H708.7v.7Z" class="g0"/>
<path fill-rule="evenodd" d="M873,331.5h.8v-.7H873v.7Z" class="g0"/>
<path fill-rule="evenodd" d="M63.3,376.3H64V331.5h-.7v44.8Z" class="g0"/>
<path fill-rule="evenodd" d="M126.4,376.3h.7V331.5h-.7v44.8Z" class="g0"/>
<path fill-rule="evenodd" d="M355.9,376.3h.8V331.5h-.8v44.8Z" class="g0"/>
<path fill-rule="evenodd" d="M611.8,376.3h.7V331.5h-.7v44.8Z" class="g0"/>
<path fill-rule="evenodd" d="M708,376.3h.7V331.5H708v44.8Z" class="g0"/>
<path fill-rule="evenodd" d="M873,376.3h.8V331.5H873v44.8Z" class="g0"/>
<path fill-rule="evenodd" d="M63.3,377H64v-.7h-.7v.7Z" class="g0"/>
<path fill-rule="evenodd" d="M64,377h62.4v-.7H64v.7Z" class="g0"/>
<path fill-rule="evenodd" d="M126.4,377h.7v-.7h-.7v.7Z" class="g0"/>
<path fill-rule="evenodd" d="M127.1,377H355.9v-.7H127.1v.7Z" class="g0"/>
<path fill-rule="evenodd" d="M355.9,377h.8v-.7h-.8v.7Z" class="g0"/>
<path fill-rule="evenodd" d="M356.7,377H611.8v-.7H356.7v.7Z" class="g0"/>
<path fill-rule="evenodd" d="M611.8,377h.7v-.7h-.7v.7Z" class="g0"/>
<path fill-rule="evenodd" d="M612.5,377H708v-.7H612.5v.7Z" class="g0"/>
<path fill-rule="evenodd" d="M708,377h.7v-.7H708v.7Z" class="g0"/>
<path fill-rule="evenodd" d="M708.7,377H873v-.7H708.7v.7Z" class="g0"/>
<path fill-rule="evenodd" d="M873,377h.8v-.7H873v.7Z" class="g0"/>
<path fill-rule="evenodd" d="M63.3,421.9H64V377h-.7v44.9Z" class="g0"/>
<path fill-rule="evenodd" d="M126.4,421.9h.7V377h-.7v44.9Z" class="g0"/>
<path fill-rule="evenodd" d="M355.9,421.9h.8V377h-.8v44.9Z" class="g0"/>
<path fill-rule="evenodd" d="M611.8,421.9h.7V377h-.7v44.9Z" class="g0"/>
<path fill-rule="evenodd" d="M708,421.9h.7V377H708v44.9Z" class="g0"/>
<path fill-rule="evenodd" d="M873,421.9h.8V377H873v44.9Z" class="g0"/>
<path fill-rule="evenodd" d="M63.3,422.7H64v-.8h-.7v.8Z" class="g0"/>
<path fill-rule="evenodd" d="M64,422.7h62.4v-.8H64v.8Z" class="g0"/>
<path fill-rule="evenodd" d="M126.4,422.7h.7v-.8h-.7v.8Z" class="g0"/>
<path fill-rule="evenodd" d="M127.1,422.7H355.9v-.8H127.1v.8Z" class="g0"/>
<path fill-rule="evenodd" d="M355.9,422.7h.8v-.8h-.8v.8Z" class="g0"/>
<path fill-rule="evenodd" d="M356.7,422.7H611.8v-.8H356.7v.8Z" class="g0"/>
<path fill-rule="evenodd" d="M611.8,422.7h.7v-.8h-.7v.8Z" class="g0"/>
<path fill-rule="evenodd" d="M612.5,422.7H708v-.8H612.5v.8Z" class="g0"/>
<path fill-rule="evenodd" d="M708,422.7h.7v-.8H708v.8Z" class="g0"/>
<path fill-rule="evenodd" d="M708.7,422.7H873v-.8H708.7v.8Z" class="g0"/>
<path fill-rule="evenodd" d="M873,422.7h.8v-.8H873v.8Z" class="g0"/>
<path fill-rule="evenodd" d="M63.3,467.4H64V422.7h-.7v44.7Z" class="g0"/>
<path fill-rule="evenodd" d="M126.4,467.4h.7V422.7h-.7v44.7Z" class="g0"/>
<path fill-rule="evenodd" d="M355.9,467.4h.8V422.7h-.8v44.7Z" class="g0"/>
<path fill-rule="evenodd" d="M611.8,467.4h.7V422.7h-.7v44.7Z" class="g0"/>
<path fill-rule="evenodd" d="M708,467.4h.7V422.7H708v44.7Z" class="g0"/>
<path fill-rule="evenodd" d="M873,467.4h.8V422.7H873v44.7Z" class="g0"/>
<path fill-rule="evenodd" d="M63.3,468.1H64v-.7h-.7v.7Z" class="g0"/>
<path fill-rule="evenodd" d="M64,468.1h62.4v-.7H64v.7Z" class="g0"/>
<path fill-rule="evenodd" d="M126.4,468.1h.7v-.7h-.7v.7Z" class="g0"/>
<path fill-rule="evenodd" d="M127.1,468.1H355.9v-.7H127.1v.7Z" class="g0"/>
<path fill-rule="evenodd" d="M355.9,468.1h.8v-.7h-.8v.7Z" class="g0"/>
<path fill-rule="evenodd" d="M356.7,468.1H611.8v-.7H356.7v.7Z" class="g0"/>
<path fill-rule="evenodd" d="M611.8,468.1h.7v-.7h-.7v.7Z" class="g0"/>
<path fill-rule="evenodd" d="M612.5,468.1H708v-.7H612.5v.7Z" class="g0"/>
<path fill-rule="evenodd" d="M708,468.1h.7v-.7H708v.7Z" class="g0"/>
<path fill-rule="evenodd" d="M708.7,468.1H873v-.7H708.7v.7Z" class="g0"/>
<path fill-rule="evenodd" d="M873,468.1h.8v-.7H873v.7Z" class="g0"/>
<path fill-rule="evenodd" d="M63.3,512.9H64V468.1h-.7v44.8Z" class="g0"/>
<path fill-rule="evenodd" d="M126.4,512.9h.7V468.1h-.7v44.8Z" class="g0"/>
<path fill-rule="evenodd" d="M355.9,512.9h.8V468.1h-.8v44.8Z" class="g0"/>
<path fill-rule="evenodd" d="M611.8,512.9h.7V468.1h-.7v44.8Z" class="g0"/>
<path fill-rule="evenodd" d="M708,512.9h.7V468.1H708v44.8Z" class="g0"/>
<path fill-rule="evenodd" d="M873,512.9h.8V468.1H873v44.8Z" class="g0"/>
<path fill-rule="evenodd" d="M63.3,513.6H64v-.7h-.7v.7Z" class="g0"/>
<path fill-rule="evenodd" d="M64,513.6h62.4v-.7H64v.7Z" class="g0"/>
<path fill-rule="evenodd" d="M126.4,513.6h.7v-.7h-.7v.7Z" class="g0"/>
<path fill-rule="evenodd" d="M127.1,513.6H355.9v-.7H127.1v.7Z" class="g0"/>
<path fill-rule="evenodd" d="M355.9,513.6h.8v-.7h-.8v.7Z" class="g0"/>
<path fill-rule="evenodd" d="M356.7,513.6H611.8v-.7H356.7v.7Z" class="g0"/>
<path fill-rule="evenodd" d="M611.8,513.6h.7v-.7h-.7v.7Z" class="g0"/>
<path fill-rule="evenodd" d="M612.5,513.6H708v-.7H612.5v.7Z" class="g0"/>
<path fill-rule="evenodd" d="M708,513.6h.7v-.7H708v.7Z" class="g0"/>
<path fill-rule="evenodd" d="M708.7,513.6H873v-.7H708.7v.7Z" class="g0"/>
<path fill-rule="evenodd" d="M873,513.6h.8v-.7H873v.7Z" class="g0"/>
<path fill-rule="evenodd" d="M63.3,558.5H64V513.6h-.7v44.9Z" class="g0"/>
<path fill-rule="evenodd" d="M126.4,558.5h.7V513.6h-.7v44.9Z" class="g0"/>
<path fill-rule="evenodd" d="M355.9,558.5h.8V513.6h-.8v44.9Z" class="g0"/>
<path fill-rule="evenodd" d="M611.8,558.5h.7V513.6h-.7v44.9Z" class="g0"/>
<path fill-rule="evenodd" d="M708,558.5h.7V513.6H708v44.9Z" class="g0"/>
<path fill-rule="evenodd" d="M873,558.5h.8V513.6H873v44.9Z" class="g0"/>
<path fill-rule="evenodd" d="M63.3,559.2H64v-.7h-.7v.7Z" class="g0"/>
<path fill-rule="evenodd" d="M64,559.2h62.4v-.7H64v.7Z" class="g0"/>
<path fill-rule="evenodd" d="M126.4,559.2h.7v-.7h-.7v.7Z" class="g0"/>
<path fill-rule="evenodd" d="M127.1,559.2H355.9v-.7H127.1v.7Z" class="g0"/>
<path fill-rule="evenodd" d="M355.9,559.2h.8v-.7h-.8v.7Z" class="g0"/>
<path fill-rule="evenodd" d="M356.7,559.2H611.8v-.7H356.7v.7Z" class="g0"/>
<path fill-rule="evenodd" d="M611.8,559.2h.7v-.7h-.7v.7Z" class="g0"/>
<path fill-rule="evenodd" d="M612.5,559.2H708v-.7H612.5v.7Z" class="g0"/>
<path fill-rule="evenodd" d="M708,559.2h.7v-.7H708v.7Z" class="g0"/>
<path fill-rule="evenodd" d="M708.7,559.2H873v-.7H708.7v.7Z" class="g0"/>
<path fill-rule="evenodd" d="M873,559.2h.8v-.7H873v.7Z" class="g0"/>
<path fill-rule="evenodd" d="M63.3,604H64V559.2h-.7V604Z" class="g0"/>
<path fill-rule="evenodd" d="M63.3,604.7H64V604h-.7v.7Z" class="g0"/>
<path fill-rule="evenodd" d="M63.3,604.7H64V604h-.7v.7Z" class="g0"/>
<path fill-rule="evenodd" d="M64,604.7h62.4V604H64v.7Z" class="g0"/>
<path fill-rule="evenodd" d="M126.4,604h.7V559.2h-.7V604Z" class="g0"/>
<path fill-rule="evenodd" d="M126.4,604.7h.7V604h-.7v.7Z" class="g0"/>
<path fill-rule="evenodd" d="M127.1,604.7H355.9V604H127.1v.7Z" class="g0"/>
<path fill-rule="evenodd" d="M355.9,604h.8V559.2h-.8V604Z" class="g0"/>
<path fill-rule="evenodd" d="M355.9,604.7h.8V604h-.8v.7Z" class="g0"/>
<path fill-rule="evenodd" d="M356.7,604.7H611.8V604H356.7v.7Z" class="g0"/>
<path fill-rule="evenodd" d="M611.8,604h.7V559.2h-.7V604Z" class="g0"/>
<path fill-rule="evenodd" d="M611.8,604.7h.7V604h-.7v.7Z" class="g0"/>
<path fill-rule="evenodd" d="M612.5,604.7H708V604H612.5v.7Z" class="g0"/>
<path fill-rule="evenodd" d="M708,604h.7V559.2H708V604Z" class="g0"/>
<path fill-rule="evenodd" d="M708,604.7h.7V604H708v.7Z" class="g0"/>
<path fill-rule="evenodd" d="M708.7,604.7H873V604H708.7v.7Z" class="g0"/>
<path fill-rule="evenodd" d="M873,604h.8V559.2H873V604Z" class="g0"/>
<path fill-rule="evenodd" d="M873,604.7h.8V604H873v.7Z" class="g0"/>
<path fill-rule="evenodd" d="M873,604.7h.8V604H873v.7Z" class="g0"/>
<path fill-rule="evenodd" d="M61.6,646.7h.7V646h-.7v.7Z" class="g0"/>
<path fill-rule="evenodd" d="M61.6,646.7h.7V646h-.7v.7Z" class="g0"/>
<path fill-rule="evenodd" d="M62.3,646.7H454.4V646H62.3v.7Z" class="g0"/>
<path fill-rule="evenodd" d="M454.4,646.7h.7V646h-.7v.7Z" class="g0"/>
<path fill-rule="evenodd" d="M455.1,646.7H873V646H455.1v.7Z" class="g0"/>
<path fill-rule="evenodd" d="M873,646.7h.8V646H873v.7Z" class="g0"/>
<path fill-rule="evenodd" d="M873,646.7h.8V646H873v.7Z" class="g0"/>
<path fill-rule="evenodd" d="M61.6,682.7h.7v-36h-.7v36Z" class="g0"/>
<path fill-rule="evenodd" d="M454.4,682.7h.7v-36h-.7v36Z" class="g0"/>
<path fill-rule="evenodd" d="M873,682.7h.8v-36H873v36Z" class="g0"/>
<path fill-rule="evenodd" d="M61.6,683.4h.7v-.7h-.7v.7Z" class="g0"/>
<path fill-rule="evenodd" d="M62.3,683.4H454.4v-.7H62.3v.7Z" class="g0"/>
<path fill-rule="evenodd" d="M454.4,683.4h.7v-.7h-.7v.7Z" class="g0"/>
<path fill-rule="evenodd" d="M455.1,683.4H873v-.7H455.1v.7Z" class="g0"/>
<path fill-rule="evenodd" d="M873,683.4h.8v-.7H873v.7Z" class="g0"/>
<path fill-rule="evenodd" d="M61.6,994.7h.7V683.4h-.7V994.7Z" class="g0"/>
<path fill-rule="evenodd" d="M61.6,995.5h.7v-.8h-.7v.8Z" class="g0"/>
<path fill-rule="evenodd" d="M61.6,995.5h.7v-.8h-.7v.8Z" class="g0"/>
<path fill-rule="evenodd" d="M62.3,995.5H454.4v-.8H62.3v.8Z" class="g0"/>
<path fill-rule="evenodd" d="M454.4,994.7h.7V683.4h-.7V994.7Z" class="g0"/>
<path fill-rule="evenodd" d="M454.4,995.5h.7v-.8h-.7v.8Z" class="g0"/>
<path fill-rule="evenodd" d="M455.1,995.5H873v-.8H455.1v.8Z" class="g0"/>
<path fill-rule="evenodd" d="M873,994.7h.8V683.4H873V994.7Z" class="g0"/>
<path fill-rule="evenodd" d="M873,995.5h.8v-.8H873v.8Z" class="g0"/>
<path fill-rule="evenodd" d="M873,995.5h.8v-.8H873v.8Z" class="g0"/>
</svg>