<?xml version="1.0" encoding="UTF-8" standalone="no"?>
<!DOCTYPE svg PUBLIC "-//W3C//DTD SVG 1.1//EN"
"http://www.w3.org/Graphics/SVG/1.1/DTD/svg11.dtd">
<svg viewBox="0 0 909 1286" version="1.1" xmlns="http://www.w3.org/2000/svg" xmlns:xlink="http://www.w3.org/1999/xlink">
<defs>
<style type="text/css"><![CDATA[
.g0_5{
fill: #000;
}
]]></style>
</defs>
<path fill-rule="evenodd" d="M55,83h.7v-.7H55V83Z" class="g0_5"/>
<path fill-rule="evenodd" d="M55,83h.7v-.7H55V83Z" class="g0_5"/>
<path fill-rule="evenodd" d="M55.7,83h81.5v-.7H55.7V83Z" class="g0_5"/>
<path fill-rule="evenodd" d="M137.2,83h.7v-.7h-.7V83Z" class="g0_5"/>
<path fill-rule="evenodd" d="M137.9,83H321.3v-.7H137.9V83Z" class="g0_5"/>
<path fill-rule="evenodd" d="M321.3,83h.7v-.7h-.7V83Z" class="g0_5"/>
<path fill-rule="evenodd" d="M322,83H454.4v-.7H322V83Z" class="g0_5"/>
<path fill-rule="evenodd" d="M454.4,83h.7v-.7h-.7V83Z" class="g0_5"/>
<path fill-rule="evenodd" d="M455.1,83H577.3v-.7H455.1V83Z" class="g0_5"/>
<path fill-rule="evenodd" d="M577.3,83h.7v-.7h-.7V83Z" class="g0_5"/>
<path fill-rule="evenodd" d="M578,83H720.8v-.7H578V83Z" class="g0_5"/>
<path fill-rule="evenodd" d="M720.8,83h.8v-.7h-.8V83Z" class="g0_5"/>
<path fill-rule="evenodd" d="M721.6,83H854v-.7H721.6V83Z" class="g0_5"/>
<path fill-rule="evenodd" d="M854,83h.7v-.7H854V83Z" class="g0_5"/>
<path fill-rule="evenodd" d="M854,83h.7v-.7H854V83Z" class="g0_5"/>
<path fill-rule="evenodd" d="M55,103.8h.7V83H55v20.8Z" class="g0_5"/>
<path fill-rule="evenodd" d="M137.2,103.8h.7V83h-.7v20.8Z" class="g0_5"/>
<path fill-rule="evenodd" d="M321.3,103.8h.7V83h-.7v20.8Z" class="g0_5"/>
<path fill-rule="evenodd" d="M454.4,103.8h.7V83h-.7v20.8Z" class="g0_5"/>
<path fill-rule="evenodd" d="M577.3,103.8h.7V83h-.7v20.8Z" class="g0_5"/>
<path fill-rule="evenodd" d="M720.8,103.8h.8V83h-.8v20.8Z" class="g0_5"/>
<path fill-rule="evenodd" d="M854,103.8h.7V83H854v20.8Z" class="g0_5"/>
<path fill-rule="evenodd" d="M55,104.5h.7v-.7H55v.7Z" class="g0_5"/>
<path fill-rule="evenodd" d="M55.7,104.5h81.5v-.7H55.7v.7Z" class="g0_5"/>
<path fill-rule="evenodd" d="M137.2,104.5h.7v-.7h-.7v.7Z" class="g0_5"/>
<path fill-rule="evenodd" d="M137.9,104.5H321.3v-.7H137.9v.7Z" class="g0_5"/>
<path fill-rule="evenodd" d="M321.3,104.5h.7v-.7h-.7v.7Z" class="g0_5"/>
<path fill-rule="evenodd" d="M322,104.5H454.4v-.7H322v.7Z" class="g0_5"/>
<path fill-rule="evenodd" d="M454.4,104.5h.7v-.7h-.7v.7Z" class="g0_5"/>
<path fill-rule="evenodd" d="M455.1,104.5H577.3v-.7H455.1v.7Z" class="g0_5"/>
<path fill-rule="evenodd" d="M577.3,104.5h.7v-.7h-.7v.7Z" class="g0_5"/>
<path fill-rule="evenodd" d="M578,104.5h30.1v-.7H578v.7Z" class="g0_5"/>
<path fill-rule="evenodd" d="M608.1,104.5h.7v-.7h-.7v.7Z" class="g0_5"/>
<path fill-rule="evenodd" d="M608.8,104.5h112v-.7h-112v.7Z" class="g0_5"/>
<path fill-rule="evenodd" d="M720.8,104.5h.8v-.7h-.8v.7Z" class="g0_5"/>
<path fill-rule="evenodd" d="M721.6,104.5H854v-.7H721.6v.7Z" class="g0_5"/>
<path fill-rule="evenodd" d="M854,104.5h.7v-.7H854v.7Z" class="g0_5"/>
<path fill-rule="evenodd" d="M55,125.1h.7V104.5H55v20.6Z" class="g0_5"/>
<path fill-rule="evenodd" d="M137.2,125.1h.7V104.5h-.7v20.6Z" class="g0_5"/>
<path fill-rule="evenodd" d="M608.1,125.1h.7V104.5h-.7v20.6Z" class="g0_5"/>
<path fill-rule="evenodd" d="M854,125.1h.7V104.5H854v20.6Z" class="g0_5"/>
<path fill-rule="evenodd" d="M55,125.8h.7v-.7H55v.7Z" class="g0_5"/>
<path fill-rule="evenodd" d="M55.7,125.8h81.5v-.7H55.7v.7Z" class="g0_5"/>
<path fill-rule="evenodd" d="M137.2,125.8h.7v-.7h-.7v.7Z" class="g0_5"/>
<path fill-rule="evenodd" d="M137.9,125.8H608.1v-.7H137.9v.7Z" class="g0_5"/>
<path fill-rule="evenodd" d="M608.1,125.8h.7v-.7h-.7v.7Z" class="g0_5"/>
<path fill-rule="evenodd" d="M608.8,125.8H854v-.7H608.8v.7Z" class="g0_5"/>
<path fill-rule="evenodd" d="M854,125.8h.7v-.7H854v.7Z" class="g0_5"/>
<path fill-rule="evenodd" d="M55,146.5h.7V125.8H55v20.7Z" class="g0_5"/>
<path fill-rule="evenodd" d="M137.2,146.5h.7V125.8h-.7v20.7Z" class="g0_5"/>
<path fill-rule="evenodd" d="M608.1,146.5h.7V125.8h-.7v20.7Z" class="g0_5"/>
<path fill-rule="evenodd" d="M854,146.5h.7V125.8H854v20.7Z" class="g0_5"/>
<path fill-rule="evenodd" d="M55,147.2h.7v-.7H55v.7Z" class="g0_5"/>
<path fill-rule="evenodd" d="M55.7,147.2h81.5v-.7H55.7v.7Z" class="g0_5"/>
<path fill-rule="evenodd" d="M137.2,147.2h.7v-.7h-.7v.7Z" class="g0_5"/>
<path fill-rule="evenodd" d="M137.9,147.2H608.1v-.7H137.9v.7Z" class="g0_5"/>
<path fill-rule="evenodd" d="M608.1,147.2h.7v-.7h-.7v.7Z" class="g0_5"/>
<path fill-rule="evenodd" d="M608.8,147.2H854v-.7H608.8v.7Z" class="g0_5"/>
<path fill-rule="evenodd" d="M854,147.2h.7v-.7H854v.7Z" class="g0_5"/>
<path fill-rule="evenodd" d="M55,167.8h.7V147.2H55v20.6Z" class="g0_5"/>
<path fill-rule="evenodd" d="M137.2,167.8h.7V147.2h-.7v20.6Z" class="g0_5"/>
<path fill-rule="evenodd" d="M608.1,167.8h.7V147.2h-.7v20.6Z" class="g0_5"/>
<path fill-rule="evenodd" d="M854,167.8h.7V147.2H854v20.6Z" class="g0_5"/>
<path fill-rule="evenodd" d="M55,168.5h.7v-.7H55v.7Z" class="g0_5"/>
<path fill-rule="evenodd" d="M55.7,168.5h81.5v-.7H55.7v.7Z" class="g0_5"/>
<path fill-rule="evenodd" d="M137.2,168.5h.7v-.7h-.7v.7Z" class="g0_5"/>
<path fill-rule="evenodd" d="M137.9,168.5H608.1v-.7H137.9v.7Z" class="g0_5"/>
<path fill-rule="evenodd" d="M608.1,168.5h.7v-.7h-.7v.7Z" class="g0_5"/>
<path fill-rule="evenodd" d="M608.8,168.5H854v-.7H608.8v.7Z" class="g0_5"/>
<path fill-rule="evenodd" d="M854,168.5h.7v-.7H854v.7Z" class="g0_5"/>
<path fill-rule="evenodd" d="M55,189.2h.7V168.5H55v20.7Z" class="g0_5"/>
<path fill-rule="evenodd" d="M137.2,189.2h.7V168.5h-.7v20.7Z" class="g0_5"/>
<path fill-rule="evenodd" d="M608.1,189.2h.7V168.5h-.7v20.7Z" class="g0_5"/>
<path fill-rule="evenodd" d="M854,189.2h.7V168.5H854v20.7Z" class="g0_5"/>
<path fill-rule="evenodd" d="M55,190h.7v-.8H55v.8Z" class="g0_5"/>
<path fill-rule="evenodd" d="M55.7,190h81.5v-.8H55.7v.8Z" class="g0_5"/>
<path fill-rule="evenodd" d="M137.2,190h.7v-.8h-.7v.8Z" class="g0_5"/>
<path fill-rule="evenodd" d="M137.9,190H608.1v-.8H137.9v.8Z" class="g0_5"/>
<path fill-rule="evenodd" d="M608.1,190h.7v-.8h-.7v.8Z" class="g0_5"/>
<path fill-rule="evenodd" d="M608.8,190H854v-.8H608.8v.8Z" class="g0_5"/>
<path fill-rule="evenodd" d="M854,190h.7v-.8H854v.8Z" class="g0_5"/>
<path fill-rule="evenodd" d="M55,210.7h.7V190H55v20.7Z" class="g0_5"/>
<path fill-rule="evenodd" d="M137.2,210.7h.7V190h-.7v20.7Z" class="g0_5"/>
<path fill-rule="evenodd" d="M608.1,210.7h.7V190h-.7v20.7Z" class="g0_5"/>
<path fill-rule="evenodd" d="M854,210.7h.7V190H854v20.7Z" class="g0_5"/>
<path fill-rule="evenodd" d="M55,211.4h.7v-.7H55v.7Z" class="g0_5"/>
<path fill-rule="evenodd" d="M55.7,211.4h81.5v-.7H55.7v.7Z" class="g0_5"/>
<path fill-rule="evenodd" d="M137.2,211.4h.7v-.7h-.7v.7Z" class="g0_5"/>
<path fill-rule="evenodd" d="M137.9,211.4H608.1v-.7H137.9v.7Z" class="g0_5"/>
<path fill-rule="evenodd" d="M608.1,211.4h.7v-.7h-.7v.7Z" class="g0_5"/>
<path fill-rule="evenodd" d="M608.8,211.4H854v-.7H608.8v.7Z" class="g0_5"/>
<path fill-rule="evenodd" d="M854,211.4h.7v-.7H854v.7Z" class="g0_5"/>
<path fill-rule="evenodd" d="M55,231.9h.7V211.4H55v20.5Z" class="g0_5"/>
<path fill-rule="evenodd" d="M137.2,231.9h.7V211.4h-.7v20.5Z" class="g0_5"/>
<path fill-rule="evenodd" d="M608.1,231.9h.7V211.4h-.7v20.5Z" class="g0_5"/>
<path fill-rule="evenodd" d="M854,231.9h.7V211.4H854v20.5Z" class="g0_5"/>
<path fill-rule="evenodd" d="M55,232.7h.7v-.8H55v.8Z" class="g0_5"/>
<path fill-rule="evenodd" d="M55.7,232.7h81.5v-.8H55.7v.8Z" class="g0_5"/>
<path fill-rule="evenodd" d="M137.2,232.7h.7v-.8h-.7v.8Z" class="g0_5"/>
<path fill-rule="evenodd" d="M137.9,232.7H608.1v-.8H137.9v.8Z" class="g0_5"/>
<path fill-rule="evenodd" d="M608.1,232.7h.7v-.8h-.7v.8Z" class="g0_5"/>
<path fill-rule="evenodd" d="M608.8,232.7H854v-.8H608.8v.8Z" class="g0_5"/>
<path fill-rule="evenodd" d="M854,232.7h.7v-.8H854v.8Z" class="g0_5"/>
<path fill-rule="evenodd" d="M55,253.4h.7V232.7H55v20.7Z" class="g0_5"/>
<path fill-rule="evenodd" d="M137.2,253.4h.7V232.7h-.7v20.7Z" class="g0_5"/>
<path fill-rule="evenodd" d="M608.1,253.4h.7V232.7h-.7v20.7Z" class="g0_5"/>
<path fill-rule="evenodd" d="M854,253.4h.7V232.7H854v20.7Z" class="g0_5"/>
<path fill-rule="evenodd" d="M55,254.1h.7v-.7H55v.7Z" class="g0_5"/>
<path fill-rule="evenodd" d="M55.7,254.1h81.5v-.7H55.7v.7Z" class="g0_5"/>
<path fill-rule="evenodd" d="M137.2,254.1h.7v-.7h-.7v.7Z" class="g0_5"/>
<path fill-rule="evenodd" d="M137.9,254.1H608.1v-.7H137.9v.7Z" class="g0_5"/>
<path fill-rule="evenodd" d="M608.1,254.1h.7v-.7h-.7v.7Z" class="g0_5"/>
<path fill-rule="evenodd" d="M608.8,254.1H854v-.7H608.8v.7Z" class="g0_5"/>
<path fill-rule="evenodd" d="M854,254.1h.7v-.7H854v.7Z" class="g0_5"/>
<path fill-rule="evenodd" d="M55,274.7h.7V254.1H55v20.6Z" class="g0_5"/>
<path fill-rule="evenodd" d="M137.2,274.7h.7V254.1h-.7v20.6Z" class="g0_5"/>
<path fill-rule="evenodd" d="M608.1,274.7h.7V254.1h-.7v20.6Z" class="g0_5"/>
<path fill-rule="evenodd" d="M854,274.7h.7V254.1H854v20.6Z" class="g0_5"/>
<path fill-rule="evenodd" d="M55,275.4h.7v-.7H55v.7Z" class="g0_5"/>
<path fill-rule="evenodd" d="M55.7,275.4h81.5v-.7H55.7v.7Z" class="g0_5"/>
<path fill-rule="evenodd" d="M137.2,275.4h.7v-.7h-.7v.7Z" class="g0_5"/>
<path fill-rule="evenodd" d="M137.9,275.4H608.1v-.7H137.9v.7Z" class="g0_5"/>
<path fill-rule="evenodd" d="M608.1,275.4h.7v-.7h-.7v.7Z" class="g0_5"/>
<path fill-rule="evenodd" d="M608.8,275.4H854v-.7H608.8v.7Z" class="g0_5"/>
<path fill-rule="evenodd" d="M854,275.4h.7v-.7H854v.7Z" class="g0_5"/>
<path fill-rule="evenodd" d="M55,296.1h.7V275.4H55v20.7Z" class="g0_5"/>
<path fill-rule="evenodd" d="M137.2,296.1h.7V275.4h-.7v20.7Z" class="g0_5"/>
<path fill-rule="evenodd" d="M608.1,296.1h.7V275.4h-.7v20.7Z" class="g0_5"/>
<path fill-rule="evenodd" d="M854,296.1h.7V275.4H854v20.7Z" class="g0_5"/>
<path fill-rule="evenodd" d="M55,296.8h.7v-.7H55v.7Z" class="g0_5"/>
<path fill-rule="evenodd" d="M55.7,296.8h81.5v-.7H55.7v.7Z" class="g0_5"/>
<path fill-rule="evenodd" d="M137.2,296.8h.7v-.7h-.7v.7Z" class="g0_5"/>
<path fill-rule="evenodd" d="M137.9,296.8H608.1v-.7H137.9v.7Z" class="g0_5"/>
<path fill-rule="evenodd" d="M608.1,296.8h.7v-.7h-.7v.7Z" class="g0_5"/>
<path fill-rule="evenodd" d="M608.8,296.8H854v-.7H608.8v.7Z" class="g0_5"/>
<path fill-rule="evenodd" d="M854,296.8h.7v-.7H854v.7Z" class="g0_5"/>
<path fill-rule="evenodd" d="M55,317.4h.7V296.8H55v20.6Z" class="g0_5"/>
<path fill-rule="evenodd" d="M137.2,317.4h.7V296.8h-.7v20.6Z" class="g0_5"/>
<path fill-rule="evenodd" d="M608.1,317.4h.7V296.8h-.7v20.6Z" class="g0_5"/>
<path fill-rule="evenodd" d="M854,317.4h.7V296.8H854v20.6Z" class="g0_5"/>
<path fill-rule="evenodd" d="M55,318.1h.7v-.7H55v.7Z" class="g0_5"/>
<path fill-rule="evenodd" d="M55.7,318.1h81.5v-.7H55.7v.7Z" class="g0_5"/>
<path fill-rule="evenodd" d="M137.2,318.1h.7v-.7h-.7v.7Z" class="g0_5"/>
<path fill-rule="evenodd" d="M137.9,318.1H608.1v-.7H137.9v.7Z" class="g0_5"/>
<path fill-rule="evenodd" d="M608.1,318.1h.7v-.7h-.7v.7Z" class="g0_5"/>
<path fill-rule="evenodd" d="M608.8,318.1H854v-.7H608.8v.7Z" class="g0_5"/>
<path fill-rule="evenodd" d="M854,318.1h.7v-.7H854v.7Z" class="g0_5"/>
<path fill-rule="evenodd" d="M55,359.4h.7V318.1H55v41.3Z" class="g0_5"/>
<path fill-rule="evenodd" d="M854,359.4h.7V318.1H854v41.3Z" class="g0_5"/>
<path fill-rule="evenodd" d="M55,360.1h.7v-.7H55v.7Z" class="g0_5"/>
<path fill-rule="evenodd" d="M55.7,360.1h81.5v-.7H55.7v.7Z" class="g0_5"/>
<path fill-rule="evenodd" d="M137.2,360.1h.7v-.7h-.7v.7Z" class="g0_5"/>
<path fill-rule="evenodd" d="M137.9,360.1H321.3v-.7H137.9v.7Z" class="g0_5"/>
<path fill-rule="evenodd" d="M321.3,360.1h.7v-.7h-.7v.7Z" class="g0_5"/>
<path fill-rule="evenodd" d="M322,360.1H454.4v-.7H322v.7Z" class="g0_5"/>
<path fill-rule="evenodd" d="M454.4,360.1h.7v-.7h-.7v.7Z" class="g0_5"/>
<path fill-rule="evenodd" d="M455.1,360.1H577.3v-.7H455.1v.7Z" class="g0_5"/>
<path fill-rule="evenodd" d="M577.3,360.1h.7v-.7h-.7v.7Z" class="g0_5"/>
<path fill-rule="evenodd" d="M578,360.1H720.8v-.7H578v.7Z" class="g0_5"/>
<path fill-rule="evenodd" d="M720.8,360.1h.8v-.7h-.8v.7Z" class="g0_5"/>
<path fill-rule="evenodd" d="M721.6,360.1H854v-.7H721.6v.7Z" class="g0_5"/>
<path fill-rule="evenodd" d="M854,360.1h.7v-.7H854v.7Z" class="g0_5"/>
<path fill-rule="evenodd" d="M55,380.7h.7V360.1H55v20.6Z" class="g0_5"/>
<path fill-rule="evenodd" d="M137.2,380.7h.7V360.1h-.7v20.6Z" class="g0_5"/>
<path fill-rule="evenodd" d="M321.3,380.7h.7V360.1h-.7v20.6Z" class="g0_5"/>
<path fill-rule="evenodd" d="M454.4,380.7h.7V360.1h-.7v20.6Z" class="g0_5"/>
<path fill-rule="evenodd" d="M577.3,380.7h.7V360.1h-.7v20.6Z" class="g0_5"/>
<path fill-rule="evenodd" d="M720.8,380.7h.8V360.1h-.8v20.6Z" class="g0_5"/>
<path fill-rule="evenodd" d="M854,380.7h.7V360.1H854v20.6Z" class="g0_5"/>
<path fill-rule="evenodd" d="M55,381.4h.7v-.7H55v.7Z" class="g0_5"/>
<path fill-rule="evenodd" d="M55.7,381.4h81.5v-.7H55.7v.7Z" class="g0_5"/>
<path fill-rule="evenodd" d="M137.2,381.4h.7v-.7h-.7v.7Z" class="g0_5"/>
<path fill-rule="evenodd" d="M137.9,381.4H321.3v-.7H137.9v.7Z" class="g0_5"/>
<path fill-rule="evenodd" d="M321.3,381.4h.7v-.7h-.7v.7Z" class="g0_5"/>
<path fill-rule="evenodd" d="M322,381.4H454.4v-.7H322v.7Z" class="g0_5"/>
<path fill-rule="evenodd" d="M454.4,381.4h.7v-.7h-.7v.7Z" class="g0_5"/>
<path fill-rule="evenodd" d="M455.1,381.4H577.3v-.7H455.1v.7Z" class="g0_5"/>
<path fill-rule="evenodd" d="M577.3,381.4h.7v-.7h-.7v.7Z" class="g0_5"/>
<path fill-rule="evenodd" d="M578,381.4h30.1v-.7H578v.7Z" class="g0_5"/>
<path fill-rule="evenodd" d="M608.1,381.4h.7v-.7h-.7v.7Z" class="g0_5"/>
<path fill-rule="evenodd" d="M608.8,381.4h112v-.7h-112v.7Z" class="g0_5"/>
<path fill-rule="evenodd" d="M720.8,381.4h.8v-.7h-.8v.7Z" class="g0_5"/>
<path fill-rule="evenodd" d="M721.6,381.4H854v-.7H721.6v.7Z" class="g0_5"/>
<path fill-rule="evenodd" d="M854,381.4h.7v-.7H854v.7Z" class="g0_5"/>
<path fill-rule="evenodd" d="M55,402.1h.7V381.4H55v20.7Z" class="g0_5"/>
<path fill-rule="evenodd" d="M137.2,402.1h.7V381.4h-.7v20.7Z" class="g0_5"/>
<path fill-rule="evenodd" d="M608.1,402.1h.7V381.4h-.7v20.7Z" class="g0_5"/>
<path fill-rule="evenodd" d="M854,402.1h.7V381.4H854v20.7Z" class="g0_5"/>
<path fill-rule="evenodd" d="M55,402.9h.7v-.8H55v.8Z" class="g0_5"/>
<path fill-rule="evenodd" d="M55.7,402.9h81.5v-.8H55.7v.8Z" class="g0_5"/>
<path fill-rule="evenodd" d="M137.2,402.9h.7v-.8h-.7v.8Z" class="g0_5"/>
<path fill-rule="evenodd" d="M137.9,402.9H608.1v-.8H137.9v.8Z" class="g0_5"/>
<path fill-rule="evenodd" d="M608.1,402.9h.7v-.8h-.7v.8Z" class="g0_5"/>
<path fill-rule="evenodd" d="M608.8,402.9H854v-.8H608.8v.8Z" class="g0_5"/>
<path fill-rule="evenodd" d="M854,402.9h.7v-.8H854v.8Z" class="g0_5"/>
<path fill-rule="evenodd" d="M55,423.6h.7V402.9H55v20.7Z" class="g0_5"/>
<path fill-rule="evenodd" d="M137.2,423.6h.7V402.9h-.7v20.7Z" class="g0_5"/>
<path fill-rule="evenodd" d="M608.1,423.6h.7V402.9h-.7v20.7Z" class="g0_5"/>
<path fill-rule="evenodd" d="M854,423.6h.7V402.9H854v20.7Z" class="g0_5"/>
<path fill-rule="evenodd" d="M55,424.3h.7v-.7H55v.7Z" class="g0_5"/>
<path fill-rule="evenodd" d="M55.7,424.3h81.5v-.7H55.7v.7Z" class="g0_5"/>
<path fill-rule="evenodd" d="M137.2,424.3h.7v-.7h-.7v.7Z" class="g0_5"/>
<path fill-rule="evenodd" d="M137.9,424.3H608.1v-.7H137.9v.7Z" class="g0_5"/>
<path fill-rule="evenodd" d="M608.1,424.3h.7v-.7h-.7v.7Z" class="g0_5"/>
<path fill-rule="evenodd" d="M608.8,424.3H854v-.7H608.8v.7Z" class="g0_5"/>
<path fill-rule="evenodd" d="M854,424.3h.7v-.7H854v.7Z" class="g0_5"/>
<path fill-rule="evenodd" d="M55,444.8h.7V424.3H55v20.5Z" class="g0_5"/>
<path fill-rule="evenodd" d="M137.2,444.8h.7V424.3h-.7v20.5Z" class="g0_5"/>
<path fill-rule="evenodd" d="M608.1,444.8h.7V424.3h-.7v20.5Z" class="g0_5"/>
<path fill-rule="evenodd" d="M854,444.8h.7V424.3H854v20.5Z" class="g0_5"/>
<path fill-rule="evenodd" d="M55,445.6h.7v-.8H55v.8Z" class="g0_5"/>
<path fill-rule="evenodd" d="M55.7,445.6h81.5v-.8H55.7v.8Z" class="g0_5"/>
<path fill-rule="evenodd" d="M137.2,445.6h.7v-.8h-.7v.8Z" class="g0_5"/>
<path fill-rule="evenodd" d="M137.9,445.6H608.1v-.8H137.9v.8Z" class="g0_5"/>
<path fill-rule="evenodd" d="M608.1,445.6h.7v-.8h-.7v.8Z" class="g0_5"/>
<path fill-rule="evenodd" d="M608.8,445.6H854v-.8H608.8v.8Z" class="g0_5"/>
<path fill-rule="evenodd" d="M854,445.6h.7v-.8H854v.8Z" class="g0_5"/>
<path fill-rule="evenodd" d="M55,466.3h.7V445.6H55v20.7Z" class="g0_5"/>
<path fill-rule="evenodd" d="M137.2,466.3h.7V445.6h-.7v20.7Z" class="g0_5"/>
<path fill-rule="evenodd" d="M608.1,466.3h.7V445.6h-.7v20.7Z" class="g0_5"/>
<path fill-rule="evenodd" d="M854,466.3h.7V445.6H854v20.7Z" class="g0_5"/>
<path fill-rule="evenodd" d="M55,467h.7v-.7H55v.7Z" class="g0_5"/>
<path fill-rule="evenodd" d="M55.7,467h81.5v-.7H55.7v.7Z" class="g0_5"/>
<path fill-rule="evenodd" d="M137.2,467h.7v-.7h-.7v.7Z" class="g0_5"/>
<path fill-rule="evenodd" d="M137.9,467H608.1v-.7H137.9v.7Z" class="g0_5"/>
<path fill-rule="evenodd" d="M608.1,467h.7v-.7h-.7v.7Z" class="g0_5"/>
<path fill-rule="evenodd" d="M608.8,467H854v-.7H608.8v.7Z" class="g0_5"/>
<path fill-rule="evenodd" d="M854,467h.7v-.7H854v.7Z" class="g0_5"/>
<path fill-rule="evenodd" d="M55,487.6h.7V467H55v20.6Z" class="g0_5"/>
<path fill-rule="evenodd" d="M137.2,487.6h.7V467h-.7v20.6Z" class="g0_5"/>
<path fill-rule="evenodd" d="M608.1,487.6h.7V467h-.7v20.6Z" class="g0_5"/>
<path fill-rule="evenodd" d="M854,487.6h.7V467H854v20.6Z" class="g0_5"/>
<path fill-rule="evenodd" d="M55,488.3h.7v-.7H55v.7Z" class="g0_5"/>
<path fill-rule="evenodd" d="M55.7,488.3h81.5v-.7H55.7v.7Z" class="g0_5"/>
<path fill-rule="evenodd" d="M137.2,488.3h.7v-.7h-.7v.7Z" class="g0_5"/>
<path fill-rule="evenodd" d="M137.9,488.3H608.1v-.7H137.9v.7Z" class="g0_5"/>
<path fill-rule="evenodd" d="M608.1,488.3h.7v-.7h-.7v.7Z" class="g0_5"/>
<path fill-rule="evenodd" d="M608.8,488.3H854v-.7H608.8v.7Z" class="g0_5"/>
<path fill-rule="evenodd" d="M854,488.3h.7v-.7H854v.7Z" class="g0_5"/>
<path fill-rule="evenodd" d="M55,509h.7V488.3H55V509Z" class="g0_5"/>
<path fill-rule="evenodd" d="M137.2,509h.7V488.3h-.7V509Z" class="g0_5"/>
<path fill-rule="evenodd" d="M608.1,509h.7V488.3h-.7V509Z" class="g0_5"/>
<path fill-rule="evenodd" d="M854,509h.7V488.3H854V509Z" class="g0_5"/>
<path fill-rule="evenodd" d="M55,509.7h.7V509H55v.7Z" class="g0_5"/>
<path fill-rule="evenodd" d="M55.7,509.7h81.5V509H55.7v.7Z" class="g0_5"/>
<path fill-rule="evenodd" d="M137.2,509.7h.7V509h-.7v.7Z" class="g0_5"/>
<path fill-rule="evenodd" d="M137.9,509.7H608.1V509H137.9v.7Z" class="g0_5"/>
<path fill-rule="evenodd" d="M608.1,509.7h.7V509h-.7v.7Z" class="g0_5"/>
<path fill-rule="evenodd" d="M608.8,509.7H854V509H608.8v.7Z" class="g0_5"/>
<path fill-rule="evenodd" d="M854,509.7h.7V509H854v.7Z" class="g0_5"/>
<path fill-rule="evenodd" d="M55,530.3h.7V509.7H55v20.6Z" class="g0_5"/>
<path fill-rule="evenodd" d="M137.2,530.3h.7V509.7h-.7v20.6Z" class="g0_5"/>
<path fill-rule="evenodd" d="M608.1,530.3h.7V509.7h-.7v20.6Z" class="g0_5"/>
<path fill-rule="evenodd" d="M854,530.3h.7V509.7H854v20.6Z" class="g0_5"/>
<path fill-rule="evenodd" d="M55,531h.7v-.7H55v.7Z" class="g0_5"/>
<path fill-rule="evenodd" d="M55.7,531h81.5v-.7H55.7v.7Z" class="g0_5"/>
<path fill-rule="evenodd" d="M137.2,531h.7v-.7h-.7v.7Z" class="g0_5"/>
<path fill-rule="evenodd" d="M137.9,531H608.1v-.7H137.9v.7Z" class="g0_5"/>
<path fill-rule="evenodd" d="M608.1,531h.7v-.7h-.7v.7Z" class="g0_5"/>
<path fill-rule="evenodd" d="M608.8,531H854v-.7H608.8v.7Z" class="g0_5"/>
<path fill-rule="evenodd" d="M854,531h.7v-.7H854v.7Z" class="g0_5"/>
<path fill-rule="evenodd" d="M55,551.7h.7V531H55v20.7Z" class="g0_5"/>
<path fill-rule="evenodd" d="M137.2,551.7h.7V531h-.7v20.7Z" class="g0_5"/>
<path fill-rule="evenodd" d="M608.1,551.7h.7V531h-.7v20.7Z" class="g0_5"/>
<path fill-rule="evenodd" d="M854,551.7h.7V531H854v20.7Z" class="g0_5"/>
<path fill-rule="evenodd" d="M55,552.5h.7v-.8H55v.8Z" class="g0_5"/>
<path fill-rule="evenodd" d="M55.7,552.5h81.5v-.8H55.7v.8Z" class="g0_5"/>
<path fill-rule="evenodd" d="M137.2,552.5h.7v-.8h-.7v.8Z" class="g0_5"/>
<path fill-rule="evenodd" d="M137.9,552.5H608.1v-.8H137.9v.8Z" class="g0_5"/>
<path fill-rule="evenodd" d="M608.1,552.5h.7v-.8h-.7v.8Z" class="g0_5"/>
<path fill-rule="evenodd" d="M608.8,552.5H854v-.8H608.8v.8Z" class="g0_5"/>
<path fill-rule="evenodd" d="M854,552.5h.7v-.8H854v.8Z" class="g0_5"/>
<path fill-rule="evenodd" d="M55,573h.7V552.5H55V573Z" class="g0_5"/>
<path fill-rule="evenodd" d="M137.2,573h.7V552.5h-.7V573Z" class="g0_5"/>
<path fill-rule="evenodd" d="M608.1,573h.7V552.5h-.7V573Z" class="g0_5"/>
<path fill-rule="evenodd" d="M854,573h.7V552.5H854V573Z" class="g0_5"/>
<path fill-rule="evenodd" d="M55,573.7h.7V573H55v.7Z" class="g0_5"/>
<path fill-rule="evenodd" d="M55.7,573.7h81.5V573H55.7v.7Z" class="g0_5"/>
<path fill-rule="evenodd" d="M137.2,573.7h.7V573h-.7v.7Z" class="g0_5"/>
<path fill-rule="evenodd" d="M137.9,573.7H608.1V573H137.9v.7Z" class="g0_5"/>
<path fill-rule="evenodd" d="M608.1,573.7h.7V573h-.7v.7Z" class="g0_5"/>
<path fill-rule="evenodd" d="M608.8,573.7H854V573H608.8v.7Z" class="g0_5"/>
<path fill-rule="evenodd" d="M854,573.7h.7V573H854v.7Z" class="g0_5"/>
<path fill-rule="evenodd" d="M55,594.4h.7V573.7H55v20.7Z" class="g0_5"/>
<path fill-rule="evenodd" d="M137.2,594.4h.7V573.7h-.7v20.7Z" class="g0_5"/>
<path fill-rule="evenodd" d="M608.1,594.4h.7V573.7h-.7v20.7Z" class="g0_5"/>
<path fill-rule="evenodd" d="M854,594.4h.7V573.7H854v20.7Z" class="g0_5"/>
<path fill-rule="evenodd" d="M55,595.2h.7v-.8H55v.8Z" class="g0_5"/>
<path fill-rule="evenodd" d="M55.7,595.2h81.5v-.8H55.7v.8Z" class="g0_5"/>
<path fill-rule="evenodd" d="M137.2,595.2h.7v-.8h-.7v.8Z" class="g0_5"/>
<path fill-rule="evenodd" d="M137.9,595.2H608.1v-.8H137.9v.8Z" class="g0_5"/>
<path fill-rule="evenodd" d="M608.1,595.2h.7v-.8h-.7v.8Z" class="g0_5"/>
<path fill-rule="evenodd" d="M608.8,595.2H854v-.8H608.8v.8Z" class="g0_5"/>
<path fill-rule="evenodd" d="M854,595.2h.7v-.8H854v.8Z" class="g0_5"/>
<path fill-rule="evenodd" d="M55,615.7h.7V595.2H55v20.5Z" class="g0_5"/>
<path fill-rule="evenodd" d="M55,616.5h.7v-.8H55v.8Z" class="g0_5"/>
<path fill-rule="evenodd" d="M55,616.5h.7v-.8H55v.8Z" class="g0_5"/>
<path fill-rule="evenodd" d="M55.7,616.5H854v-.8H55.7v.8Z" class="g0_5"/>
<path fill-rule="evenodd" d="M854,615.7h.7V595.2H854v20.5Z" class="g0_5"/>
<path fill-rule="evenodd" d="M854,616.5h.7v-.8H854v.8Z" class="g0_5"/>
<path fill-rule="evenodd" d="M854,616.5h.7v-.8H854v.8Z" class="g0_5"/>
<path fill-rule="evenodd" d="M324.8,876.7h260v-1.1h-260v1.1Z" class="g0_5"/>
<path fill-rule="evenodd" d="M63.6,902.3h.7v-.7h-.7v.7Z" class="g0_5"/>
<path fill-rule="evenodd" d="M63.6,902.3h.7v-.7h-.7v.7Z" class="g0_5"/>
<path fill-rule="evenodd" d="M64.3,902.3H166.5v-.7H64.3v.7Z" class="g0_5"/>
<path fill-rule="evenodd" d="M166.5,902.3h.7v-.7h-.7v.7Z" class="g0_5"/>
<path fill-rule="evenodd" d="M167.2,902.3H269.6v-.7H167.2v.7Z" class="g0_5"/>
<path fill-rule="evenodd" d="M269.6,902.3h.7v-.7h-.7v.7Z" class="g0_5"/>
<path fill-rule="evenodd" d="M270.3,902.3H871.2v-.7H270.3v.7Z" class="g0_5"/>
<path fill-rule="evenodd" d="M871.2,902.3h.7v-.7h-.7v.7Z" class="g0_5"/>
<path fill-rule="evenodd" d="M871.2,902.3h.7v-.7h-.7v.7Z" class="g0_5"/>
<path fill-rule="evenodd" d="M63.6,938.1h.7V902.3h-.7v35.8Z" class="g0_5"/>
<path fill-rule="evenodd" d="M166.5,938.1h.7V902.3h-.7v35.8Z" class="g0_5"/>
<path fill-rule="evenodd" d="M269.6,938.1h.7V902.3h-.7v35.8Z" class="g0_5"/>
<path fill-rule="evenodd" d="M871.2,938.1h.7V902.3h-.7v35.8Z" class="g0_5"/>
<path fill-rule="evenodd" d="M63.6,938.8h.7v-.7h-.7v.7Z" class="g0_5"/>
<path fill-rule="evenodd" d="M64.3,938.8H166.5v-.7H64.3v.7Z" class="g0_5"/>
<path fill-rule="evenodd" d="M166.5,938.8h.7v-.7h-.7v.7Z" class="g0_5"/>
<path fill-rule="evenodd" d="M167.2,938.8H269.6v-.7H167.2v.7Z" class="g0_5"/>
<path fill-rule="evenodd" d="M269.6,938.8h.7v-.7h-.7v.7Z" class="g0_5"/>
<path fill-rule="evenodd" d="M270.3,938.8H871.2v-.7H270.3v.7Z" class="g0_5"/>
<path fill-rule="evenodd" d="M871.2,938.8h.7v-.7h-.7v.7Z" class="g0_5"/>
<path fill-rule="evenodd" d="M63.6,974.4h.7V938.8h-.7v35.6Z" class="g0_5"/>
<path fill-rule="evenodd" d="M166.5,974.4h.7V938.8h-.7v35.6Z" class="g0_5"/>
<path fill-rule="evenodd" d="M269.6,974.4h.7V938.8h-.7v35.6Z" class="g0_5"/>
<path fill-rule="evenodd" d="M871.2,974.4h.7V938.8h-.7v35.6Z" class="g0_5"/>
<path fill-rule="evenodd" d="M63.6,975.1h.7v-.7h-.7v.7Z" class="g0_5"/>
<path fill-rule="evenodd" d="M64.3,975.1H166.5v-.7H64.3v.7Z" class="g0_5"/>
<path fill-rule="evenodd" d="M166.5,975.1h.7v-.7h-.7v.7Z" class="g0_5"/>
<path fill-rule="evenodd" d="M167.2,975.1H269.6v-.7H167.2v.7Z" class="g0_5"/>
<path fill-rule="evenodd" d="M269.6,975.1h.7v-.7h-.7v.7Z" class="g0_5"/>
<path fill-rule="evenodd" d="M270.3,975.1H871.2v-.7H270.3v.7Z" class="g0_5"/>
<path fill-rule="evenodd" d="M871.2,975.1h.7v-.7h-.7v.7Z" class="g0_5"/>
<path fill-rule="evenodd" d="M63.6,1010.9h.7V975.1h-.7v35.8Z" class="g0_5"/>
<path fill-rule="evenodd" d="M166.5,1010.9h.7V975.1h-.7v35.8Z" class="g0_5"/>
<path fill-rule="evenodd" d="M269.6,1010.9h.7V975.1h-.7v35.8Z" class="g0_5"/>
<path fill-rule="evenodd" d="M871.2,1010.9h.7V975.1h-.7v35.8Z" class="g0_5"/>
<path fill-rule="evenodd" d="M63.6,1011.6h.7v-.7h-.7v.7Z" class="g0_5"/>
<path fill-rule="evenodd" d="M64.3,1011.6H166.5v-.7H64.3v.7Z" class="g0_5"/>
<path fill-rule="evenodd" d="M166.5,1011.6h.7v-.7h-.7v.7Z" class="g0_5"/>
<path fill-rule="evenodd" d="M167.2,1011.6H269.6v-.7H167.2v.7Z" class="g0_5"/>
<path fill-rule="evenodd" d="M269.6,1011.6h.7v-.7h-.7v.7Z" class="g0_5"/>
<path fill-rule="evenodd" d="M270.3,1011.6H871.2v-.7H270.3v.7Z" class="g0_5"/>
<path fill-rule="evenodd" d="M871.2,1011.6h.7v-.7h-.7v.7Z" class="g0_5"/>
<path fill-rule="evenodd" d="M63.6,1047.4h.7v-35.8h-.7v35.8Z" class="g0_5"/>
<path fill-rule="evenodd" d="M166.5,1047.4h.7v-35.8h-.7v35.8Z" class="g0_5"/>
<path fill-rule="evenodd" d="M269.6,1047.4h.7v-35.8h-.7v35.8Z" class="g0_5"/>
<path fill-rule="evenodd" d="M871.2,1047.4h.7v-35.8h-.7v35.8Z" class="g0_5"/>
<path fill-rule="evenodd" d="M63.6,1048.1h.7v-.7h-.7v.7Z" class="g0_5"/>
<path fill-rule="evenodd" d="M64.3,1048.1H166.5v-.7H64.3v.7Z" class="g0_5"/>
<path fill-rule="evenodd" d="M166.5,1048.1h.7v-.7h-.7v.7Z" class="g0_5"/>
<path fill-rule="evenodd" d="M167.2,1048.1H269.6v-.7H167.2v.7Z" class="g0_5"/>
<path fill-rule="evenodd" d="M269.6,1048.1h.7v-.7h-.7v.7Z" class="g0_5"/>
<path fill-rule="evenodd" d="M270.3,1048.1H871.2v-.7H270.3v.7Z" class="g0_5"/>
<path fill-rule="evenodd" d="M871.2,1048.1h.7v-.7h-.7v.7Z" class="g0_5"/>
<path fill-rule="evenodd" d="M63.6,1083.8h.7v-35.7h-.7v35.7Z" class="g0_5"/>
<path fill-rule="evenodd" d="M166.5,1083.8h.7v-35.7h-.7v35.7Z" class="g0_5"/>
<path fill-rule="evenodd" d="M269.6,1083.8h.7v-35.7h-.7v35.7Z" class="g0_5"/>
<path fill-rule="evenodd" d="M871.2,1083.8h.7v-35.7h-.7v35.7Z" class="g0_5"/>
<path fill-rule="evenodd" d="M63.6,1084.6h.7v-.8h-.7v.8Z" class="g0_5"/>
<path fill-rule="evenodd" d="M64.3,1084.6H166.5v-.8H64.3v.8Z" class="g0_5"/>
<path fill-rule="evenodd" d="M166.5,1084.6h.7v-.8h-.7v.8Z" class="g0_5"/>
<path fill-rule="evenodd" d="M167.2,1084.6H269.6v-.8H167.2v.8Z" class="g0_5"/>
<path fill-rule="evenodd" d="M269.6,1084.6h.7v-.8h-.7v.8Z" class="g0_5"/>
<path fill-rule="evenodd" d="M270.3,1084.6H871.2v-.8H270.3v.8Z" class="g0_5"/>
<path fill-rule="evenodd" d="M871.2,1084.6h.7v-.8h-.7v.8Z" class="g0_5"/>
<path fill-rule="evenodd" d="M63.6,1120.2h.7v-35.6h-.7v35.6Z" class="g0_5"/>
<path fill-rule="evenodd" d="M166.5,1120.2h.7v-35.6h-.7v35.6Z" class="g0_5"/>
<path fill-rule="evenodd" d="M269.6,1120.2h.7v-35.6h-.7v35.6Z" class="g0_5"/>
<path fill-rule="evenodd" d="M871.2,1120.2h.7v-35.6h-.7v35.6Z" class="g0_5"/>
<path fill-rule="evenodd" d="M63.6,1120.9h.7v-.7h-.7v.7Z" class="g0_5"/>
<path fill-rule="evenodd" d="M64.3,1120.9H166.5v-.7H64.3v.7Z" class="g0_5"/>
<path fill-rule="evenodd" d="M166.5,1120.9h.7v-.7h-.7v.7Z" class="g0_5"/>
<path fill-rule="evenodd" d="M167.2,1120.9H269.6v-.7H167.2v.7Z" class="g0_5"/>
<path fill-rule="evenodd" d="M269.6,1120.9h.7v-.7h-.7v.7Z" class="g0_5"/>
<path fill-rule="evenodd" d="M270.3,1120.9H871.2v-.7H270.3v.7Z" class="g0_5"/>
<path fill-rule="evenodd" d="M871.2,1120.9h.7v-.7h-.7v.7Z" class="g0_5"/>
<path fill-rule="evenodd" d="M63.6,1156.6h.7v-35.7h-.7v35.7Z" class="g0_5"/>
<path fill-rule="evenodd" d="M63.6,1157.4h.7v-.7h-.7v.7Z" class="g0_5"/>
<path fill-rule="evenodd" d="M63.6,1157.4h.7v-.7h-.7v.7Z" class="g0_5"/>
<path fill-rule="evenodd" d="M64.3,1157.4H166.5v-.7H64.3v.7Z" class="g0_5"/>
<path fill-rule="evenodd" d="M166.5,1156.6h.7v-35.7h-.7v35.7Z" class="g0_5"/>
<path fill-rule="evenodd" d="M166.5,1157.4h.7v-.7h-.7v.7Z" class="g0_5"/>
<path fill-rule="evenodd" d="M167.2,1157.4H269.6v-.7H167.2v.7Z" class="g0_5"/>
<path fill-rule="evenodd" d="M269.6,1156.6h.7v-35.7h-.7v35.7Z" class="g0_5"/>
<path fill-rule="evenodd" d="M269.6,1157.4h.7v-.7h-.7v.7Z" class="g0_5"/>
<path fill-rule="evenodd" d="M270.3,1157.4H871.2v-.7H270.3v.7Z" class="g0_5"/>
<path fill-rule="evenodd" d="M871.2,1156.6h.7v-35.7h-.7v35.7Z" class="g0_5"/>
<path fill-rule="evenodd" d="M871.2,1157.4h.7v-.7h-.7v.7Z" class="g0_5"/>
<path fill-rule="evenodd" d="M871.2,1157.4h.7v-.7h-.7v.7Z" class="g0_5"/>
<path fill-rule="evenodd" d="M61.4,656.3h.8v-.8h-.8v.8Z" class="g0_5"/>
<path fill-rule="evenodd" d="M61.4,656.3h.8v-.8h-.8v.8Z" class="g0_5"/>
<path fill-rule="evenodd" d="M62.2,656.3H356.8v-.8H62.2v.8Z" class="g0_5"/>
<path fill-rule="evenodd" d="M356.8,656.3h.8v-.8h-.8v.8Z" class="g0_5"/>
<path fill-rule="evenodd" d="M357.6,656.3H872.9v-.8H357.6v.8Z" class="g0_5"/>
<path fill-rule="evenodd" d="M872.9,656.3h.7v-.8h-.7v.8Z" class="g0_5"/>
<path fill-rule="evenodd" d="M872.9,656.3h.7v-.8h-.7v.8Z" class="g0_5"/>
<path fill-rule="evenodd" d="M61.4,710h.8V656.3h-.8V710Z" class="g0_5"/>
<path fill-rule="evenodd" d="M356.8,710h.8V656.3h-.8V710Z" class="g0_5"/>
<path fill-rule="evenodd" d="M872.9,710h.7V656.3h-.7V710Z" class="g0_5"/>
<path fill-rule="evenodd" d="M61.4,710.7h.8V710h-.8v.7Z" class="g0_5"/>
<path fill-rule="evenodd" d="M62.2,710.7H356.8V710H62.2v.7Z" class="g0_5"/>
<path fill-rule="evenodd" d="M356.8,710.7h.8V710h-.8v.7Z" class="g0_5"/>
<path fill-rule="evenodd" d="M357.6,710.7H872.9V710H357.6v.7Z" class="g0_5"/>
<path fill-rule="evenodd" d="M872.9,710.7h.7V710h-.7v.7Z" class="g0_5"/>
<path fill-rule="evenodd" d="M61.4,751.4h.8V710.7h-.8v40.7Z" class="g0_5"/>
<path fill-rule="evenodd" d="M356.8,751.4h.8V710.7h-.8v40.7Z" class="g0_5"/>
<path fill-rule="evenodd" d="M872.9,751.4h.7V710.7h-.7v40.7Z" class="g0_5"/>
<path fill-rule="evenodd" d="M61.4,752.1h.8v-.7h-.8v.7Z" class="g0_5"/>
<path fill-rule="evenodd" d="M62.2,752.1H356.8v-.7H62.2v.7Z" class="g0_5"/>
<path fill-rule="evenodd" d="M356.8,752.1h.8v-.7h-.8v.7Z" class="g0_5"/>
<path fill-rule="evenodd" d="M357.6,752.1H872.9v-.7H357.6v.7Z" class="g0_5"/>
<path fill-rule="evenodd" d="M872.9,752.1h.7v-.7h-.7v.7Z" class="g0_5"/>
<path fill-rule="evenodd" d="M61.4,792.8h.8V752.1h-.8v40.7Z" class="g0_5"/>
<path fill-rule="evenodd" d="M356.8,792.8h.8V752.1h-.8v40.7Z" class="g0_5"/>
<path fill-rule="evenodd" d="M872.9,792.8h.7V752.1h-.7v40.7Z" class="g0_5"/>
<path fill-rule="evenodd" d="M61.4,793.6h.8v-.8h-.8v.8Z" class="g0_5"/>
<path fill-rule="evenodd" d="M62.2,793.6H356.8v-.8H62.2v.8Z" class="g0_5"/>
<path fill-rule="evenodd" d="M356.8,793.6h.8v-.8h-.8v.8Z" class="g0_5"/>
<path fill-rule="evenodd" d="M357.6,793.6H872.9v-.8H357.6v.8Z" class="g0_5"/>
<path fill-rule="evenodd" d="M872.9,793.6h.7v-.8h-.7v.8Z" class="g0_5"/>
<path fill-rule="evenodd" d="M61.4,839h.8V793.6h-.8V839Z" class="g0_5"/>
<path fill-rule="evenodd" d="M61.4,839.8h.8V839h-.8v.8Z" class="g0_5"/>
<path fill-rule="evenodd" d="M61.4,839.8h.8V839h-.8v.8Z" class="g0_5"/>
<path fill-rule="evenodd" d="M62.2,839.8H356.8V839H62.2v.8Z" class="g0_5"/>
<path fill-rule="evenodd" d="M356.8,839h.8V793.6h-.8V839Z" class="g0_5"/>
<path fill-rule="evenodd" d="M356.8,839.8h.8V839h-.8v.8Z" class="g0_5"/>
<path fill-rule="evenodd" d="M357.6,839.8H872.9V839H357.6v.8Z" class="g0_5"/>
<path fill-rule="evenodd" d="M872.9,839h.7V793.6h-.7V839Z" class="g0_5"/>
<path fill-rule="evenodd" d="M872.9,839.8h.7V839h-.7v.8Z" class="g0_5"/>
<path fill-rule="evenodd" d="M872.9,839.8h.7V839h-.7v.8Z" class="g0_5"/>
</svg>